<svg version="1.1" id="Layer_1" xmlns="http://www.w3.org/2000/svg" xmlns:xlink="http://www.w3.org/1999/xlink" x="0px" y="0px"
	 width="100%" viewBox="0 0 512 512" enable-background="new 0 0 512 512" xml:space="preserve">
<path fill="#000000" opacity="1.000000" stroke="none" 
	d="
M513.000000,294.000000 
	C513.000000,366.968933 513.000000,439.937866 513.000000,512.953369 
	C342.437042,512.953369 171.874039,512.953369 1.000000,512.953369 
	C1.000000,416.978210 1.000000,320.956085 1.266162,224.140732 
	C4.098711,226.809464 6.734799,230.222961 9.194186,233.759354 
	C10.071482,235.020828 10.520684,236.580048 11.092959,238.442017 
	C11.255702,248.778458 13.373567,258.189880 19.021925,266.454132 
	C26.841158,277.894684 37.866577,285.304657 50.700314,289.913208 
	C57.615795,292.396545 64.885834,293.892548 72.360504,296.017639 
	C79.779991,297.133514 86.813301,298.398865 93.898827,298.857635 
	C97.443672,299.087097 98.913216,300.089172 99.026451,303.589264 
	C99.808525,327.764099 117.640709,346.902863 137.793549,354.914490 
	C145.961945,358.161835 154.594925,360.240479 163.460999,362.918823 
	C171.602432,363.268951 179.299377,363.551147 187.425797,363.909119 
	C191.874008,363.656219 195.898972,363.388275 199.909302,362.977570 
	C202.615753,362.700409 205.301605,362.221985 208.426697,361.908508 
	C213.702393,361.183777 217.411758,362.923309 220.349258,366.818359 
	C226.471283,374.935944 232.701370,382.972015 238.943497,391.406372 
	C243.634232,402.198486 248.268509,412.625824 252.948090,423.448425 
	C255.289719,431.575226 257.586060,439.306763 259.936218,447.455200 
	C262.660919,458.138458 265.190216,468.446136 268.162445,478.624451 
	C268.585419,480.072906 271.281342,481.986603 272.714600,481.824280 
	C280.857788,480.902191 288.936920,479.414642 297.471741,478.069031 
	C305.639465,476.695343 313.373322,475.372009 321.469147,474.023071 
	C325.185699,472.109772 326.342896,469.776123 325.166748,465.652191 
	C323.531494,459.918640 322.896332,453.899872 321.896667,447.580688 
	C321.527557,442.202179 321.094879,437.246155 320.633087,431.956696 
	C323.398407,432.771942 325.199127,433.302826 327.350098,434.013397 
	C329.992645,434.858795 332.245209,435.776917 334.584290,436.144836 
	C343.038971,437.474762 351.522797,438.619629 360.458008,439.908722 
	C369.279388,439.266449 377.638336,438.549835 386.400330,437.906738 
	C394.166077,435.438446 401.528809,432.896637 409.188446,430.204987 
	C415.012177,426.412720 420.539001,422.770294 426.375000,418.980194 
	C430.331085,413.794922 433.977966,408.757294 437.796967,403.399719 
	C439.682526,397.402191 441.395966,391.724579 443.454926,385.829010 
	C443.942963,383.851318 444.085449,382.091614 444.212830,380.518372 
	C447.335571,379.665527 450.193085,378.885101 453.451385,378.060333 
	C459.251953,375.713593 464.651764,373.411194 470.370850,370.964233 
	C474.830658,367.228149 478.971252,363.636658 483.418640,359.913147 
	C487.188049,355.201416 490.650665,350.621735 494.423187,345.879791 
	C497.433136,339.811890 500.133148,333.906219 502.912048,327.618683 
	C504.938293,320.156403 506.885651,313.076050 509.017395,305.636414 
	C509.802063,302.323456 510.290375,299.339813 511.068207,296.433624 
	C511.313843,295.515808 512.334167,294.805328 513.000000,294.000000 
z"/>
<path fill="#000000" opacity="1.000000" stroke="none" 
	d="
M1.000000,202.000000 
	C1.000000,135.030380 1.000000,68.060753 1.000000,1.045562 
	C171.558914,1.045562 342.117828,1.045562 513.000000,1.045562 
	C513.000000,83.687820 513.000000,166.376053 512.670654,249.854218 
	C511.993896,250.293045 511.398010,249.981644 511.334625,249.585114 
	C508.545105,232.132446 499.971802,217.977051 486.899994,206.324890 
	C486.023193,205.543289 485.652863,204.193573 485.379761,202.922729 
	C489.116791,196.100113 488.420441,189.043533 487.899231,181.615738 
	C485.472534,173.680283 482.947479,166.120529 476.931793,160.468231 
	C473.669067,157.402618 470.878693,154.500366 469.944031,149.566330 
	C468.048676,139.560806 460.612610,133.400848 452.489594,128.228943 
	C447.770538,125.224358 442.729126,122.726013 437.904449,119.581207 
	C437.261871,115.441566 436.547668,111.720581 435.905151,107.604584 
	C432.885132,93.649025 425.562378,82.724945 414.026672,75.234756 
	C407.950439,71.289436 400.713531,69.131645 393.649902,65.990753 
	C385.533447,64.598763 377.767792,63.382748 369.560791,62.093964 
	C366.098114,61.406094 361.457977,61.815315 360.316162,60.010876 
	C352.469208,47.610157 340.829742,42.613766 326.536438,41.093357 
	C319.048431,41.402721 312.023621,41.784698 304.605713,42.093853 
	C292.808472,39.056103 281.404297,36.091167 269.545410,33.071346 
	C258.394257,32.733315 247.697800,32.450172 236.537552,32.095238 
	C226.240311,32.404736 216.406845,32.786026 206.130783,33.138397 
	C204.120026,33.406567 202.548309,33.686081 200.984360,34.003822 
	C194.638901,35.293003 188.295837,36.593929 181.548737,37.937378 
	C173.750214,41.284271 166.354813,44.584320 158.506897,47.934441 
	C152.325989,48.324467 146.563675,48.391167 140.880661,49.096615 
	C136.822617,49.600357 132.871002,50.961681 128.485840,51.967316 
	C121.717163,55.293701 115.334541,58.593102 108.635010,62.035690 
	C104.857430,66.251907 101.485107,70.405273 97.891129,74.357056 
	C96.519531,75.865204 94.639984,76.911400 92.530594,78.097366 
	C81.348183,77.459465 70.980263,78.430626 61.574509,85.091766 
	C53.488312,90.597054 48.040337,97.611870 45.552883,107.147446 
	C44.699753,111.669327 43.209335,115.112648 38.261784,116.026993 
	C36.761227,116.304306 35.422409,117.456772 33.668930,118.246735 
	C28.537258,122.140129 23.746166,125.995171 18.631620,129.997269 
	C17.710785,131.087769 17.037058,131.991959 16.528645,132.981140 
	C13.626357,138.627884 10.763426,144.294861 7.547235,150.151199 
	C6.526838,158.232971 5.846331,166.118484 5.094462,174.446167 
	C5.032946,176.884323 4.465981,179.109985 5.153322,180.836258 
	C8.001637,187.989868 7.693696,194.661362 2.984253,201.359558 
	C2.201072,201.808670 1.600536,201.904343 1.000000,202.000000 
z"/>
<path fill="#2AB3E2" opacity="1.000000" stroke="none" 
	d="
M485.046936,203.108093 
	C485.652863,204.193573 486.023193,205.543289 486.899994,206.324890 
	C499.971802,217.977051 508.545105,232.132446 511.334625,249.585114 
	C511.398010,249.981644 511.993896,250.293045 512.670654,250.322083 
	C513.000000,251.066666 513.000000,252.133347 512.638550,253.576721 
	C509.484314,251.768723 506.750488,249.502243 503.877106,247.429199 
	C502.082367,246.134354 500.077209,245.131195 497.999573,243.657608 
	C493.945953,230.649292 486.132721,220.782776 475.655914,213.002182 
	C470.012329,208.811005 469.321503,205.322998 473.800140,199.682297 
	C474.703064,198.545074 475.384064,197.231613 476.494446,196.067627 
	C479.563324,198.459930 482.305145,200.784012 485.046936,203.108093 
z"/>
<path fill="#EA0FFC" opacity="1.000000" stroke="none" 
	d="
M1.000000,202.468567 
	C1.600536,201.904343 2.201072,201.808670 3.311139,201.425369 
	C6.824729,203.426605 9.828790,205.715485 12.903858,208.412354 
	C10.746431,215.031158 12.579287,220.955902 17.301548,224.356628 
	C22.574924,228.154236 23.461420,232.470779 23.041475,238.062607 
	C22.845007,240.678680 23.079679,243.327164 22.771645,245.916290 
	C20.902788,244.700912 19.425760,243.465851 17.848917,242.375076 
	C15.660295,240.861084 13.396751,239.455414 11.165285,238.003357 
	C10.520684,236.580048 10.071482,235.020828 9.194186,233.759354 
	C6.734799,230.222961 4.098711,226.809464 1.266162,223.673752 
	C1.000000,216.979050 1.000000,209.958099 1.000000,202.468567 
z"/>
<path fill="#34AAE3" opacity="1.000000" stroke="none" 
	d="
M498.166504,243.997131 
	C500.077209,245.131195 502.082367,246.134354 503.877106,247.429199 
	C506.750488,249.502243 509.484314,251.768723 512.638550,253.976715 
	C513.000000,262.687561 513.000000,271.375122 512.638245,280.516998 
	C508.906616,278.646393 505.536743,276.321472 502.096130,273.539062 
	C500.739105,263.386749 499.452820,253.691940 498.166504,243.997131 
z"/>
<path fill="#3EA2E5" opacity="1.000000" stroke="none" 
	d="
M502.166840,273.996582 
	C505.536743,276.321472 508.906616,278.646393 512.638245,280.985657 
	C513.000000,285.024536 513.000000,289.049103 513.000000,293.536804 
	C512.334167,294.805328 511.313843,295.515808 511.068207,296.433624 
	C510.290375,299.339813 509.802063,302.323456 508.690796,305.569946 
	C505.175446,303.574493 502.171082,301.286194 499.096436,298.578186 
	C500.073029,290.104462 501.119934,282.050537 502.166840,273.996582 
z"/>
<path fill="#E811FC" opacity="1.000000" stroke="none" 
	d="
M163.016510,362.850922 
	C154.594925,360.240479 145.961945,358.161835 137.793549,354.914490 
	C117.640709,346.902863 99.808525,327.764099 99.026451,303.589264 
	C98.913216,300.089172 97.443672,299.087097 93.898827,298.857635 
	C86.813301,298.398865 79.779991,297.133514 72.294327,295.690552 
	C69.040909,292.084412 66.116814,289.072571 63.456532,285.843445 
	C62.642056,284.854797 62.551311,283.269928 62.531258,281.975098 
	C73.660599,283.663513 84.363113,285.530701 95.129784,286.889557 
	C98.454407,287.309204 101.950653,286.123657 105.374115,286.074341 
	C108.822731,286.024628 111.552551,289.476196 110.817673,292.660370 
	C107.080788,308.851959 116.714226,327.750824 130.068039,336.817719 
	C137.406647,341.800476 146.008224,344.923187 154.043808,349.253601 
	C155.818283,352.035309 157.651794,354.405212 159.340286,356.874268 
	C160.659027,358.802643 161.797775,360.854126 163.016510,362.850922 
z"/>
<path fill="#F307FD" opacity="1.000000" stroke="none" 
	d="
M62.129139,281.958099 
	C62.551311,283.269928 62.642056,284.854797 63.456532,285.843445 
	C66.116814,289.072571 69.040909,292.084412 71.929718,295.506897 
	C64.885834,293.892548 57.615795,292.396545 50.700314,289.913208 
	C37.866577,285.304657 26.841158,277.894684 19.021925,266.454132 
	C13.373567,258.189880 11.255702,248.778458 11.092958,238.442017 
	C13.396751,239.455414 15.660295,240.861084 17.848917,242.375076 
	C19.425760,243.465851 20.902788,244.700912 23.109333,246.102020 
	C25.344078,257.059753 31.589264,265.045380 40.064087,270.803162 
	C46.824722,275.396332 54.731255,278.302887 62.129139,281.958099 
z"/>
<path fill="#CE27F8" opacity="1.000000" stroke="none" 
	d="
M238.887054,391.041595 
	C232.701370,382.972015 226.471283,374.935944 220.349258,366.818359 
	C217.411758,362.923309 213.702393,361.183777 208.359955,361.580902 
	C205.574127,357.841034 203.285080,354.503693 201.437225,351.091248 
	C204.136734,350.740906 206.388428,350.377106 208.654648,350.207550 
	C214.897842,349.740417 221.124207,348.918945 225.670837,355.059967 
	C228.483521,358.858948 232.087570,362.060913 235.152695,365.686188 
	C245.570786,378.008087 253.462173,391.818237 258.767212,406.884766 
	C255.567337,404.354431 252.791687,401.763336 249.841904,399.388550 
	C246.267181,396.510712 242.545273,393.815704 238.887054,391.041595 
z"/>
<path fill="#E315FB" opacity="1.000000" stroke="none" 
	d="
M297.037842,478.119446 
	C288.936920,479.414642 280.857788,480.902191 272.714600,481.824280 
	C271.281342,481.986603 268.585419,480.072906 268.162445,478.624451 
	C265.190216,468.446136 262.660919,458.138458 260.283691,447.500854 
	C264.995789,450.420898 269.414215,453.712219 273.911865,457.395203 
	C275.196655,461.840851 276.402161,465.894867 277.473602,469.497955 
	C281.804321,469.037689 285.900970,468.602295 290.014832,468.518188 
	C292.367310,471.952789 294.702576,475.036102 297.037842,478.119446 
z"/>
<path fill="#BA38F6" opacity="1.000000" stroke="none" 
	d="
M359.995605,439.834351 
	C351.522797,438.619629 343.038971,437.474762 334.584290,436.144836 
	C332.245209,435.776917 329.992645,434.858795 327.333740,433.661865 
	C325.561981,431.170441 324.236145,429.146973 322.734009,427.264191 
	C320.201447,424.089996 317.557037,421.005035 315.138580,417.583862 
	C320.902222,419.202972 326.427948,421.321320 332.087097,422.986176 
	C338.661713,424.920380 345.353271,426.457031 352.063293,428.493317 
	C353.264038,430.222778 354.474457,431.569702 355.508606,433.040558 
	C357.068878,435.259766 358.506073,437.565460 359.995605,439.834351 
z"/>
<path fill="#D620F9" opacity="1.000000" stroke="none" 
	d="
M238.943497,391.406372 
	C242.545273,393.815704 246.267181,396.510712 249.841904,399.388550 
	C252.791687,401.763336 255.567337,404.354431 259.106567,407.060913 
	C262.472656,416.183380 265.152313,425.094604 267.495239,433.940613 
	C264.472198,431.784149 261.802399,429.671204 259.094086,427.608765 
	C257.055908,426.056671 254.968369,424.569336 252.902802,423.053162 
	C248.268509,412.625824 243.634232,402.198486 238.943497,391.406372 
z"/>
<path fill="#CE27F8" opacity="1.000000" stroke="none" 
	d="
M321.833069,448.003174 
	C322.896332,453.899872 323.531494,459.918640 325.166748,465.652191 
	C326.342896,469.776123 325.185699,472.109772 321.210327,473.808075 
	C317.711975,470.386475 314.834351,467.154175 311.982666,463.492615 
	C311.394440,455.376099 310.780273,447.688934 310.517761,440.017426 
	C312.363190,440.972290 313.921753,441.823883 315.335754,442.870758 
	C317.552856,444.512238 319.672272,446.285645 321.833069,448.003174 
z"/>
<path fill="#AF42F4" opacity="1.000000" stroke="none" 
	d="
M360.458008,439.908752 
	C358.506073,437.565460 357.068878,435.259766 355.508606,433.040558 
	C354.474457,431.569702 353.264038,430.222778 352.527222,428.418884 
	C355.403595,428.010803 357.888031,428.076599 360.366486,427.983398 
	C366.579712,427.749786 372.790222,427.444183 379.065857,427.504028 
	C381.419067,431.171448 383.708191,434.502350 385.997314,437.833191 
	C377.638336,438.549835 369.279388,439.266449 360.458008,439.908752 
z"/>
<path fill="#E017FB" opacity="1.000000" stroke="none" 
	d="
M163.460999,362.918823 
	C161.797775,360.854126 160.659027,358.802643 159.340286,356.874268 
	C157.651794,354.405212 155.818283,352.035309 154.458160,349.303406 
	C162.911255,350.044891 170.953445,351.105682 179.013092,352.518127 
	C179.970566,354.363129 180.824036,355.920593 181.870605,357.335205 
	C183.510605,359.552002 185.281082,361.672211 186.996307,363.833344 
	C179.299377,363.551147 171.602432,363.268951 163.460999,362.918823 
z"/>
<path fill="#D620F9" opacity="1.000000" stroke="none" 
	d="
M311.956757,463.921936 
	C314.834351,467.154175 317.711975,470.386475 320.848389,473.833740 
	C313.373322,475.372009 305.639465,476.695343 297.471741,478.069031 
	C294.702576,475.036102 292.367310,471.952789 290.382324,468.321594 
	C297.807373,466.489746 304.882050,465.205841 311.956757,463.921936 
z"/>
<path fill="#DD1AFA" opacity="1.000000" stroke="none" 
	d="
M252.948090,423.448425 
	C254.968369,424.569336 257.055908,426.056671 259.094086,427.608765 
	C261.802399,429.671204 264.472198,431.784149 267.671082,434.295410 
	C270.066681,442.144775 271.949646,449.574158 273.832642,457.003540 
	C269.414215,453.712219 264.995789,450.420898 260.229889,447.083923 
	C257.586060,439.306763 255.289719,431.575226 252.948090,423.448425 
z"/>
<path fill="#C232F7" opacity="1.000000" stroke="none" 
	d="
M321.896667,447.580688 
	C319.672272,446.285645 317.552856,444.512238 315.335754,442.870758 
	C313.921753,441.823883 312.363190,440.972290 310.442627,439.554443 
	C310.010895,433.950562 309.949524,428.824524 310.021545,423.700378 
	C310.066803,420.483459 310.961182,417.822449 314.959656,417.882568 
	C317.557037,421.005035 320.201447,424.089996 322.734009,427.264191 
	C324.236145,429.146973 325.561981,431.170441 326.983459,433.482178 
	C325.199127,433.302826 323.398407,432.771942 320.633087,431.956696 
	C321.094879,437.246155 321.527557,442.202179 321.896667,447.580688 
z"/>
<path fill="#A34CF2" opacity="1.000000" stroke="none" 
	d="
M386.400330,437.906738 
	C383.708191,434.502350 381.419067,431.171448 379.484802,427.429993 
	C386.515747,425.331299 393.191833,423.643188 400.130981,422.168762 
	C403.226532,425.039886 406.059021,427.697357 408.891510,430.354797 
	C401.528809,432.896637 394.166077,435.438446 386.400330,437.906738 
z"/>
<path fill="#4B97E6" opacity="1.000000" stroke="none" 
	d="
M499.166748,298.997925 
	C502.171082,301.286194 505.175446,303.574493 508.506409,305.929199 
	C506.885651,313.076050 504.938293,320.156403 502.585388,327.551392 
	C499.175598,325.578064 496.171356,323.290192 493.104614,320.614441 
	C495.083618,313.150391 497.125183,306.074158 499.166748,298.997925 
z"/>
<path fill="#9756F1" opacity="1.000000" stroke="none" 
	d="
M409.188446,430.204956 
	C406.059021,427.697357 403.226532,425.039886 400.301971,421.838379 
	C401.839996,420.657898 403.611359,420.249207 405.073669,419.342194 
	C409.409393,416.652740 413.623260,413.766846 418.182892,411.119690 
	C421.009247,413.897034 423.537537,416.512451 426.065796,419.127869 
	C420.539001,422.770294 415.012177,426.412720 409.188446,430.204956 
z"/>
<path fill="#D620F9" opacity="1.000000" stroke="none" 
	d="
M187.425797,363.909119 
	C185.281082,361.672211 183.510605,359.552002 181.870605,357.335205 
	C180.824036,355.920593 179.970566,354.363129 179.476135,352.442444 
	C186.946503,351.732269 193.971252,351.449310 200.996017,351.166382 
	C203.285080,354.503693 205.574127,357.841034 207.929932,361.505981 
	C205.301605,362.221985 202.615753,362.700409 199.909302,362.977570 
	C195.898972,363.388275 191.874008,363.656219 187.425797,363.909119 
z"/>
<path fill="#568DE8" opacity="1.000000" stroke="none" 
	d="
M493.167114,321.002289 
	C496.171356,323.290192 499.175598,325.578064 502.506500,327.933289 
	C500.133148,333.906219 497.433136,339.811890 494.091125,345.795715 
	C490.591400,343.558655 487.733673,341.243408 485.034882,338.609131 
	C487.851593,332.527496 490.509338,326.764893 493.167114,321.002289 
z"/>
<path fill="#7A6FED" opacity="1.000000" stroke="none" 
	d="
M453.050629,378.104675 
	C450.193085,378.885101 447.335571,379.665527 444.212830,380.518372 
	C444.085449,382.091614 443.942963,383.851318 443.157288,385.664490 
	C439.069397,383.146484 435.624664,380.575012 432.108276,377.600281 
	C432.176910,370.678253 434.776733,368.027802 441.113861,368.009003 
	C443.077118,368.003174 445.040741,368.110840 447.072388,368.494995 
	C449.110596,371.917236 451.080597,375.010986 453.050629,378.104675 
z"/>
<path fill="#8D5FEF" opacity="1.000000" stroke="none" 
	d="
M426.375000,418.980194 
	C423.537537,416.512451 421.009247,413.897034 418.320709,410.807587 
	C421.734833,405.541443 425.309235,400.749329 429.231354,396.020142 
	C432.260986,398.628601 434.942902,401.174133 437.624817,403.719666 
	C433.977966,408.757294 430.331085,413.794922 426.375000,418.980194 
z"/>
<path fill="#8169EE" opacity="1.000000" stroke="none" 
	d="
M437.796936,403.399719 
	C434.942902,401.174133 432.260986,398.628601 429.280884,395.623535 
	C430.048431,389.443848 431.114197,383.723694 432.179932,378.003540 
	C435.624664,380.575012 439.069397,383.146484 442.811768,385.882477 
	C441.395966,391.724579 439.682526,397.402191 437.796936,403.399719 
z"/>
<path fill="#5C88E9" opacity="1.000000" stroke="none" 
	d="
M484.875977,338.928162 
	C487.733673,341.243408 490.591400,343.558655 493.781189,345.957947 
	C490.650665,350.621735 487.188049,355.201416 483.121338,359.749023 
	C479.999298,357.086700 477.481384,354.456421 475.090881,351.522308 
	C478.437500,347.121704 481.656738,343.024933 484.875977,338.928162 
z"/>
<path fill="#7077EC" opacity="1.000000" stroke="none" 
	d="
M453.451385,378.060364 
	C451.080597,375.010986 449.110596,371.917236 447.419128,368.317963 
	C452.429260,366.192474 457.160889,364.572510 462.189850,363.115448 
	C465.008636,365.888489 467.530121,368.498657 470.051575,371.108795 
	C464.651764,373.411194 459.251953,375.713593 453.451385,378.060364 
z"/>
<path fill="#677FEB" opacity="1.000000" stroke="none" 
	d="
M470.370850,370.964233 
	C467.530121,368.498657 465.008636,365.888489 462.335571,362.796692 
	C466.443787,358.818726 470.703644,355.322449 474.963501,351.826172 
	C477.481384,354.456421 479.999298,357.086700 482.814514,359.881042 
	C478.971252,363.636658 474.830658,367.228149 470.370850,370.964233 
z"/>
<path fill="#18C2E0" opacity="1.000000" stroke="none" 
	d="
M437.832794,119.999863 
	C442.729126,122.726013 447.770538,125.224358 452.489594,128.228943 
	C460.612610,133.400848 468.048676,139.560806 469.944031,149.566330 
	C470.878693,154.500366 473.669067,157.402618 476.931793,160.468231 
	C482.947479,166.120529 485.472534,173.680283 487.572327,181.548950 
	C480.994568,176.044815 474.881714,170.145355 468.589783,164.443527 
	C465.979218,162.077759 462.985779,160.134445 460.094849,157.607712 
	C458.576660,150.123901 455.536133,144.051666 448.908295,140.426407 
	C443.126831,137.264114 437.491364,133.642303 431.364777,131.377762 
	C427.839630,130.074768 426.696136,127.764198 426.241302,125.110847 
	C425.447754,120.481239 425.480865,115.709923 425.494476,111.066505 
	C429.825256,114.089951 433.829010,117.044907 437.832794,119.999863 
z"/>
<path fill="#20BCE1" opacity="1.000000" stroke="none" 
	d="
M326.999634,41.165970 
	C340.829742,42.613766 352.469208,47.610157 360.316162,60.010876 
	C361.457977,61.815315 366.098114,61.406094 369.627625,62.420837 
	C373.091309,66.491455 376.046783,70.162430 378.561005,73.906212 
	C371.614166,73.984581 365.068695,74.403885 358.623627,73.782127 
	C356.210510,73.549339 353.151642,71.399475 351.911224,69.245872 
	C348.275269,62.933292 343.408203,58.251415 336.906433,54.736298 
	C335.668091,52.855267 334.444885,51.340580 333.286743,49.777691 
	C331.170746,46.922173 329.093201,44.038120 326.999634,41.165970 
z"/>
<path fill="#11C9DF" opacity="1.000000" stroke="none" 
	d="
M394.000702,66.166733 
	C400.713531,69.131645 407.950439,71.289436 414.026672,75.234756 
	C425.562378,82.724945 432.885132,93.649025 435.553711,107.588150 
	C430.681091,104.071907 426.312347,100.078499 421.740143,96.333504 
	C420.046448,94.946259 417.874878,94.142487 415.947510,93.058380 
	C415.973785,93.044144 415.953003,93.100174 415.859924,92.893433 
	C415.611511,92.422455 415.411407,92.198105 415.027161,91.702789 
	C412.911743,89.633522 410.935760,87.875107 408.956177,85.747589 
	C405.234833,81.018715 401.436279,76.724205 397.837982,72.267967 
	C396.339111,70.411705 395.266907,68.210884 394.000702,66.166733 
z"/>
<path fill="#32ACE3" opacity="1.000000" stroke="none" 
	d="
M270.000122,33.126236 
	C281.404297,36.091167 292.808472,39.056103 304.673126,42.420723 
	C307.755371,46.158001 310.377106,49.495594 312.567078,52.905235 
	C308.598785,53.247253 304.834320,54.425892 301.570862,53.607239 
	C293.577698,51.602119 285.815796,48.675053 277.957062,45.749611 
	C276.403107,43.187859 274.790833,41.036098 273.322205,38.790386 
	C272.125641,36.960663 271.101013,35.018524 270.000122,33.126236 
z"/>
<path fill="#3EA2E5" opacity="1.000000" stroke="none" 
	d="
M269.545410,33.071346 
	C271.101013,35.018524 272.125641,36.960663 273.322205,38.790386 
	C274.790833,41.036098 276.403107,43.187859 277.521179,45.699337 
	C266.059937,44.956642 255.030807,43.894844 243.984894,42.481617 
	C241.645859,38.809132 239.323608,35.488079 237.001343,32.167030 
	C247.697800,32.450172 258.394257,32.733315 269.545410,33.071346 
z"/>
<path fill="#9756F1" opacity="1.000000" stroke="none" 
	d="
M61.887390,84.955681 
	C70.980263,78.430626 81.348183,77.459465 92.599388,78.424179 
	C96.789650,82.227592 100.449783,85.633446 103.916176,89.377914 
	C100.457390,89.810341 97.185448,90.085869 93.928658,89.962234 
	C85.771042,89.652557 77.734093,90.033257 69.876953,92.820236 
	C67.106255,89.999817 64.496819,87.477745 61.887390,84.955681 
z"/>
<path fill="#4B97E6" opacity="1.000000" stroke="none" 
	d="
M236.537552,32.095238 
	C239.323608,35.488079 241.645859,38.809132 243.522827,42.553406 
	C233.385300,43.261959 223.693054,43.547295 213.932159,43.504097 
	C211.433456,39.839489 209.003418,36.503407 206.573395,33.167320 
	C216.406845,32.786026 226.240311,32.404736 236.537552,32.095238 
z"/>
<path fill="#20BCE1" opacity="1.000000" stroke="none" 
	d="
M460.166443,157.999023 
	C462.985779,160.134445 465.979218,162.077759 468.589783,164.443527 
	C474.881714,170.145355 480.994568,176.044815 487.506561,181.931351 
	C488.420441,189.043533 489.116791,196.100113 485.379761,202.922729 
	C482.305145,200.784012 479.563324,198.459930 476.423828,195.648270 
	C478.333771,182.423157 473.981201,172.551346 463.620056,164.871170 
	C461.781219,163.508148 461.283478,160.335846 460.166443,157.999023 
z"/>
<path fill="#7077EC" opacity="1.000000" stroke="none" 
	d="
M128.871902,51.940331 
	C132.871002,50.961681 136.822617,49.600357 140.880661,49.096615 
	C146.563675,48.391167 152.325989,48.324467 158.569885,48.281349 
	C161.070084,51.425003 163.054764,54.271820 164.874786,57.456894 
	C162.455353,58.529827 160.246414,59.655586 157.937302,59.925930 
	C150.980377,60.740437 143.984482,61.222080 136.935669,61.506203 
	C134.202332,58.099354 131.537125,55.019844 128.871902,51.940331 
z"/>
<path fill="#DD1AFA" opacity="1.000000" stroke="none" 
	d="
M12.832848,208.004364 
	C9.828790,205.715485 6.824729,203.426605 3.493783,201.071899 
	C7.693696,194.661362 8.001637,187.989868 5.153322,180.836258 
	C4.465981,179.109985 5.032946,176.884323 5.445925,174.461639 
	C7.362775,174.973770 8.921829,175.824753 10.335862,176.871613 
	C12.553299,178.513275 14.672835,180.287186 17.005901,182.358978 
	C18.034798,185.279541 19.252611,187.793839 19.634935,190.429352 
	C19.944153,192.560913 19.750982,195.061905 18.889624,197.003769 
	C17.198599,200.816086 14.887417,204.353317 12.832848,208.004364 
z"/>
<path fill="#A649F3" opacity="1.000000" stroke="none" 
	d="
M61.574509,85.091766 
	C64.496819,87.477745 67.106255,89.999817 69.739624,93.131775 
	C62.185875,98.607140 57.307442,105.423149 54.821480,113.862946 
	C51.699661,111.387535 48.792061,109.172005 45.884457,106.956474 
	C48.040337,97.611870 53.488312,90.597054 61.574509,85.091766 
z"/>
<path fill="#16C4DF" opacity="1.000000" stroke="none" 
	d="
M393.649902,65.990753 
	C395.266907,68.210884 396.339111,70.411705 397.837982,72.267967 
	C401.436279,76.724205 405.234833,81.018715 408.637573,85.604347 
	C405.897064,84.221931 403.665436,82.090538 401.008759,81.105911 
	C393.769226,78.422745 386.350189,76.224068 379.002258,73.833420 
	C376.046783,70.162430 373.091309,66.491455 370.068970,62.493607 
	C377.767792,63.382748 385.533447,64.598763 393.649902,65.990753 
z"/>
<path fill="#6382EA" opacity="1.000000" stroke="none" 
	d="
M165.039459,57.118629 
	C163.054764,54.271820 161.070084,51.425003 159.022415,48.231277 
	C166.354813,44.584320 173.750214,41.284271 181.713104,38.235367 
	C184.519806,41.602242 186.758987,44.717972 188.605377,47.905376 
	C180.488205,51.024246 172.763824,54.071438 165.039459,57.118629 
z"/>
<path fill="#8D5FEF" opacity="1.000000" stroke="none" 
	d="
M104.109909,89.039299 
	C100.449783,85.633446 96.789650,82.227592 93.060715,78.494934 
	C94.639984,76.911400 96.519531,75.865204 97.891129,74.357056 
	C101.485107,70.405273 104.857430,66.251907 108.798859,62.332695 
	C111.891197,65.004860 114.502769,67.523209 116.968353,70.358963 
	C114.813202,72.666260 112.398369,74.390984 110.885651,76.705360 
	C108.326744,80.620377 106.338234,84.908211 104.109909,89.039299 
z"/>
<path fill="#568DE8" opacity="1.000000" stroke="none" 
	d="
M188.998169,47.833702 
	C186.758987,44.717972 184.519806,41.602242 182.116257,38.188519 
	C188.295837,36.593929 194.638901,35.293003 200.984360,34.003822 
	C202.548309,33.686081 204.120026,33.406567 206.130783,33.138405 
	C209.003418,36.503407 211.433456,39.839489 213.518204,43.589092 
	C212.108521,44.333107 211.065598,44.814495 209.976227,44.969563 
	C202.989212,45.964153 195.992020,46.887161 188.998169,47.833702 
z"/>
<path fill="#D223F9" opacity="1.000000" stroke="none" 
	d="
M16.833832,182.005081 
	C14.672835,180.287186 12.553299,178.513275 10.335862,176.871613 
	C8.921829,175.824753 7.362775,174.973770 5.517286,174.019501 
	C5.846331,166.118484 6.526838,158.232971 7.892938,150.214874 
	C11.672589,152.372177 14.766648,154.662033 17.820385,157.354950 
	C17.186739,161.019272 16.172678,164.271103 16.099485,167.544006 
	C15.991862,172.356491 16.555914,177.183975 16.833832,182.005081 
z"/>
<path fill="#7A6FED" opacity="1.000000" stroke="none" 
	d="
M117.114349,70.041557 
	C114.502769,67.523209 111.891197,65.004860 109.115768,62.189503 
	C115.334541,58.593102 121.717163,55.293701 128.485840,51.967316 
	C131.537125,55.019844 134.202332,58.099354 136.542053,61.577690 
	C129.849167,64.664864 123.481758,67.353210 117.114349,70.041557 
z"/>
<path fill="#2AB3E2" opacity="1.000000" stroke="none" 
	d="
M312.998871,52.833187 
	C310.377106,49.495594 307.755371,46.158001 305.066223,42.493542 
	C312.023621,41.784698 319.048431,41.402721 326.536438,41.093361 
	C329.093201,44.038120 331.170746,46.922173 333.286743,49.777691 
	C334.444885,51.340580 335.668091,52.855267 336.507568,54.690659 
	C328.570801,52.813786 320.940521,51.151775 312.998871,52.833187 
z"/>
<path fill="#C72CF7" opacity="1.000000" stroke="none" 
	d="
M17.860704,156.951889 
	C14.766648,154.662033 11.672589,152.372177 8.232828,150.018646 
	C10.763426,144.294861 13.626357,138.627884 16.528645,132.981140 
	C17.037058,131.991959 17.710785,131.087769 18.703939,130.343170 
	C21.760714,133.385223 24.421715,136.228455 26.946186,139.385834 
	C23.826674,145.450638 20.843687,151.201263 17.860704,156.951889 
z"/>
<path fill="#B23FF4" opacity="1.000000" stroke="none" 
	d="
M45.552883,107.147446 
	C48.792061,109.172005 51.699661,111.387535 54.804722,114.276611 
	C55.854073,120.207466 53.093998,123.089485 48.539982,124.812386 
	C46.307198,125.657097 44.090393,126.544052 41.535545,127.211914 
	C38.806328,124.077423 36.407917,121.142906 34.009510,118.208397 
	C35.422409,117.456772 36.761227,116.304306 38.261784,116.026993 
	C43.209335,115.112648 44.699753,111.669327 45.552883,107.147446 
z"/>
<path fill="#BA38F6" opacity="1.000000" stroke="none" 
	d="
M33.668930,118.246735 
	C36.407917,121.142906 38.806328,124.077423 41.263832,127.468430 
	C36.576195,131.640518 31.829454,135.356094 27.082714,139.071671 
	C24.421715,136.228455 21.760714,133.385223 19.027393,130.196106 
	C23.746166,125.995171 28.537258,122.140129 33.668930,118.246735 
z"/>
<path fill="#16C4DF" opacity="1.000000" stroke="none" 
	d="
M415.921234,93.072617 
	C417.874878,94.142487 420.046448,94.946259 421.740143,96.333504 
	C426.312347,100.078499 430.681091,104.071907 435.482025,107.983177 
	C436.547668,111.720581 437.261871,115.441566 437.904449,119.581207 
	C433.829010,117.044907 429.825256,114.089951 425.326935,110.726120 
	C421.862000,104.569031 418.891602,98.820824 415.921234,93.072617 
z"/>
<path fill="#000000" opacity="1.000000" stroke="none" 
	d="
M415.947510,93.058380 
	C418.891602,98.820824 421.862000,104.569031 424.999939,110.657623 
	C425.480865,115.709923 425.447754,120.481239 426.241302,125.110847 
	C426.696136,127.764198 427.839630,130.074768 431.364777,131.377762 
	C437.491364,133.642303 443.126831,137.264114 448.908295,140.426407 
	C455.536133,144.051666 458.576660,150.123901 460.094849,157.607727 
	C461.283478,160.335846 461.781219,163.508148 463.620056,164.871170 
	C473.981201,172.551346 478.333771,182.423157 476.096771,195.580048 
	C475.384064,197.231613 474.703064,198.545074 473.800140,199.682297 
	C469.321503,205.322998 470.012329,208.811005 475.655914,213.002182 
	C486.132721,220.782776 493.945953,230.649292 497.999573,243.657593 
	C499.452820,253.691940 500.739105,263.386749 502.096130,273.539062 
	C501.119934,282.050537 500.073029,290.104462 499.096436,298.578186 
	C497.125183,306.074158 495.083618,313.150391 493.104614,320.614441 
	C490.509338,326.764893 487.851593,332.527496 485.034912,338.609131 
	C481.656738,343.024933 478.437500,347.121704 475.090881,351.522308 
	C470.703644,355.322449 466.443787,358.818726 462.038208,362.633789 
	C457.160889,364.572510 452.429260,366.192474 447.350891,367.989502 
	C445.040741,368.110840 443.077118,368.003174 441.113861,368.009003 
	C434.776733,368.027802 432.176910,370.678253 432.108276,377.600281 
	C431.114197,383.723694 430.048431,389.443848 428.933167,395.560608 
	C425.309235,400.749329 421.734833,405.541443 418.022614,410.645660 
	C413.623260,413.766846 409.409393,416.652740 405.073669,419.342194 
	C403.611359,420.249207 401.839996,420.657898 400.038879,421.624695 
	C393.191833,423.643188 386.515747,425.331299 379.420746,427.093445 
	C372.790222,427.444183 366.579712,427.749786 360.366486,427.983398 
	C357.888031,428.076599 355.403595,428.010803 352.457977,428.091797 
	C345.353271,426.457031 338.661713,424.920380 332.087097,422.986176 
	C326.427948,421.321320 320.902222,419.202972 315.138580,417.583862 
	C310.961182,417.822449 310.066803,420.483459 310.021545,423.700378 
	C309.949524,428.824524 310.010895,433.950562 310.090973,439.538757 
	C310.780273,447.688934 311.394440,455.376099 311.982666,463.492615 
	C304.882050,465.205841 297.807373,466.489746 290.365143,467.970306 
	C285.900970,468.602295 281.804321,469.037689 277.473602,469.497955 
	C276.402161,465.894867 275.196655,461.840851 273.911865,457.395203 
	C271.949646,449.574158 270.066681,442.144775 268.007812,434.360626 
	C265.152313,425.094604 262.472656,416.183380 259.453613,407.095978 
	C253.462173,391.818237 245.570786,378.008087 235.152695,365.686188 
	C232.087570,362.060913 228.483521,358.858948 225.670837,355.059967 
	C221.124207,348.918945 214.897842,349.740417 208.654648,350.207550 
	C206.388428,350.377106 204.136734,350.740906 201.437225,351.091248 
	C193.971252,351.449310 186.946503,351.732269 179.458694,352.090851 
	C170.953445,351.105682 162.911255,350.044891 154.454712,348.934326 
	C146.008224,344.923187 137.406647,341.800476 130.068039,336.817719 
	C116.714226,327.750824 107.080788,308.851959 110.817673,292.660370 
	C111.552551,289.476196 108.822731,286.024628 105.374115,286.074341 
	C101.950653,286.123657 98.454407,287.309204 95.129784,286.889557 
	C84.363113,285.530701 73.660599,283.663513 62.531250,281.975098 
	C54.731255,278.302887 46.824722,275.396332 40.064087,270.803162 
	C31.589264,265.045380 25.344078,257.059753 23.456636,246.146683 
	C23.079679,243.327164 22.845007,240.678680 23.041475,238.062607 
	C23.461420,232.470779 22.574924,228.154236 17.301548,224.356628 
	C12.579287,220.955902 10.746431,215.031158 12.903856,208.412369 
	C14.887417,204.353317 17.198599,200.816086 18.889624,197.003769 
	C19.750982,195.061905 19.944153,192.560913 19.634935,190.429352 
	C19.252611,187.793839 18.034798,185.279541 17.005898,182.358978 
	C16.555914,177.183975 15.991862,172.356491 16.099485,167.544006 
	C16.172678,164.271103 17.186739,161.019272 17.820385,157.354950 
	C20.843687,151.201263 23.826674,145.450638 26.946186,139.385834 
	C31.829454,135.356094 36.576195,131.640518 41.594643,127.668411 
	C44.090393,126.544052 46.307198,125.657097 48.539982,124.812386 
	C53.093998,123.089485 55.854073,120.207466 55.018944,114.536484 
	C57.307442,105.423149 62.185875,98.607140 69.900894,93.430130 
	C77.734093,90.033257 85.771042,89.652557 93.928658,89.962234 
	C97.185448,90.085869 100.457390,89.810341 103.916168,89.377914 
	C106.338234,84.908211 108.326744,80.620377 110.885651,76.705360 
	C112.398369,74.390984 114.813202,72.666260 116.968353,70.358963 
	C123.481758,67.353210 129.849167,64.664864 136.610168,61.905025 
	C143.984482,61.222080 150.980377,60.740437 157.937302,59.925930 
	C160.246414,59.655586 162.455353,58.529827 164.874786,57.456894 
	C172.763824,54.071438 180.488205,51.024246 188.605377,47.905373 
	C195.992020,46.887161 202.989212,45.964153 209.976227,44.969563 
	C211.065598,44.814495 212.108521,44.333107 213.586853,43.917618 
	C223.693054,43.547295 233.385300,43.261959 243.539612,42.904839 
	C255.030807,43.894844 266.059937,44.956642 277.524963,46.068710 
	C285.815796,48.675053 293.577698,51.602119 301.570862,53.607239 
	C304.834320,54.425892 308.598785,53.247253 312.567078,52.905235 
	C320.940521,51.151775 328.570801,52.813786 336.552032,55.035271 
	C343.408203,58.251415 348.275269,62.933292 351.911224,69.245872 
	C353.151642,71.399475 356.210510,73.549339 358.623627,73.782127 
	C365.068695,74.403885 371.614166,73.984581 378.561005,73.906219 
	C386.350189,76.224068 393.769226,78.422745 401.008759,81.105911 
	C403.665436,82.090538 405.897064,84.221931 408.641174,85.973465 
	C410.935760,87.875107 412.911743,89.633522 414.994019,91.964355 
	C415.384583,92.724579 415.668793,92.912376 415.953003,93.100174 
	C415.953003,93.100174 415.973785,93.044144 415.947510,93.058380 
M144.922607,296.983582 
	C151.613708,296.933136 158.304794,296.882660 165.905716,296.980988 
	C179.746338,297.009033 179.383774,298.762299 178.982574,283.080414 
	C178.933136,274.387604 178.883713,265.694763 178.983139,256.075531 
	C178.989578,253.752197 178.978622,251.428680 179.005890,249.105591 
	C179.074554,243.257965 177.155746,236.396698 186.753967,234.763611 
	C190.133011,232.113525 191.413559,228.701218 191.060623,224.394836 
	C190.763367,220.767853 191.310150,217.060257 190.883179,213.459518 
	C190.614182,211.190994 189.751724,208.596680 188.271149,206.937836 
	C182.451370,200.417419 174.598709,201.633133 167.177933,202.473969 
	C163.265411,202.917313 159.062790,204.063385 157.201935,209.363052 
	C156.800995,213.885147 156.142838,218.402130 156.053146,222.930389 
	C155.871338,232.109390 158.918442,235.760864 168.165512,237.734100 
	C168.165512,241.434341 168.165512,245.218628 168.024445,249.930527 
	C168.072327,258.955963 168.120209,267.981384 168.026718,277.911560 
	C168.026718,280.466003 168.026718,283.020447 168.026718,286.168518 
	C164.396927,286.168518 161.196259,286.168518 157.069153,286.023621 
	C150.378006,286.071503 143.686844,286.119354 136.077484,286.023651 
	C132.745895,286.016174 129.409409,286.119781 126.083992,285.972931 
	C121.971214,285.791290 120.143265,288.597839 120.224800,291.723053 
	C120.298592,294.551392 122.110512,297.202423 126.017929,297.049377 
	C132.004150,296.814850 138.002502,296.889618 144.922607,296.983582 
M223.976410,326.016083 
	C229.983582,325.955139 235.990753,325.894165 242.925049,325.981323 
	C250.282715,325.932373 257.640381,325.883423 265.883057,325.981903 
	C268.171906,325.981903 270.460754,325.981903 272.698975,325.981903 
	C273.419464,333.761475 277.007111,337.000061 284.418579,337.001312 
	C288.736084,337.002045 293.066681,337.196136 297.365143,336.909454 
	C299.309998,336.779785 301.190948,335.691742 303.743805,334.748596 
	C308.867889,329.048279 309.912476,312.840027 305.347992,306.962524 
	C304.186127,305.466400 302.408905,303.609833 300.777832,303.465820 
	C294.674622,302.926941 288.485107,302.629700 282.390228,303.081665 
	C279.832001,303.271393 277.429138,305.556091 274.269867,307.279633 
	C273.672119,309.391815 273.074371,311.503998 272.321259,314.165131 
	C267.409790,314.165131 262.204193,314.165131 256.070801,314.023987 
	C248.379822,314.071533 240.688843,314.119080 232.071991,314.023926 
	C226.047348,314.405029 220.022705,314.786133 213.249222,315.277222 
	C209.195038,322.194000 210.670029,329.531403 212.145325,336.657135 
	C212.418320,337.975769 215.848831,339.405212 217.835526,339.424957 
	C220.805862,339.454498 222.842041,337.340424 222.976791,334.087982 
	C223.086868,331.431030 223.031845,328.767273 223.976410,326.016083 
M73.072105,187.029236 
	C66.519417,187.069855 59.966728,187.110489 52.560215,187.011536 
	C46.832542,187.309570 41.103889,187.590195 35.377537,187.911743 
	C31.590263,188.124420 30.691029,191.012100 31.173712,193.780746 
	C31.669882,196.626755 33.181133,199.189499 37.089718,199.059830 
	C44.718182,198.806732 52.357765,198.888840 60.920162,198.983353 
	C67.612152,198.932983 74.304146,198.882629 81.922966,198.980377 
	C87.946625,198.930618 93.970276,198.880859 100.605820,198.980637 
	C101.025337,198.999008 101.444847,199.017395 101.966995,199.963089 
	C101.966995,205.892471 101.966995,211.821854 101.966995,217.096313 
	C99.612930,218.187775 97.781410,219.036957 95.308067,220.183380 
	C92.000198,222.831863 90.585129,226.165100 90.936913,230.483780 
	C91.244751,234.263062 90.749252,238.108002 91.059944,241.886826 
	C91.451363,246.647446 93.152420,251.007294 98.508965,251.909088 
	C103.138771,252.688507 107.901176,252.704651 112.609200,252.987900 
	C116.983383,253.251068 120.513809,251.620636 123.801666,247.723740 
	C124.533615,242.690155 125.485733,237.676788 125.950195,232.618637 
	C126.829506,223.042770 122.583145,219.453781 114.123840,217.367126 
	C114.027168,215.264099 113.929298,213.134827 113.980492,210.078033 
	C113.985580,204.447601 113.918015,198.815796 114.025925,193.187332 
	C114.081238,190.302368 113.147270,188.203445 110.091858,188.009384 
	C103.738197,187.605865 97.369400,187.440399 90.082062,187.026184 
	C84.720871,187.076035 79.359673,187.125885 73.072105,187.029236 
M166.298859,102.013092 
	C165.810135,101.342773 165.321396,100.672455 164.977081,99.074432 
	C164.983459,90.942360 164.965454,82.810173 165.007019,74.678276 
	C165.026337,70.899193 162.839600,69.970436 159.538162,69.962700 
	C156.268280,69.955048 153.964783,70.780777 154.002365,74.591278 
	C154.062881,80.728020 154.112640,86.864868 154.025345,93.927879 
	C154.016907,98.578598 153.977570,103.229538 154.009476,107.879982 
	C154.036713,111.848145 156.083710,113.966934 160.059875,113.981728 
	C165.038925,114.000259 170.018478,113.888535 175.925110,113.977242 
	C182.283295,113.929413 188.641464,113.881584 195.818497,113.977028 
	C198.903503,113.554314 200.347717,114.701271 201.225922,117.924736 
	C201.843567,120.191833 203.840149,123.067413 205.884750,123.787964 
	C213.921066,126.620140 222.184875,127.787041 230.747635,122.760521 
	C234.130051,120.109344 235.388718,116.685387 235.060364,112.385262 
	C234.770813,108.593239 235.613190,104.625412 234.806717,100.990105 
	C234.143829,98.001930 232.449432,94.429314 230.062500,92.798355 
	C224.269333,88.839973 217.450912,89.540222 210.791046,90.645889 
	C206.759140,91.315269 203.161911,92.461555 201.222855,97.352997 
	C200.958267,100.948105 199.257553,102.512253 195.461838,102.074051 
	C192.681488,101.753059 189.822769,102.110870 186.071777,102.024452 
	C179.713501,102.072021 173.355209,102.119591 166.298859,102.013092 
M351.024109,95.924538 
	C351.073700,103.283768 351.123322,110.642990 351.026520,118.929092 
	C351.075623,127.285378 351.124725,135.641663 351.030304,144.925751 
	C351.019073,154.222076 350.952484,163.518784 351.018646,172.814560 
	C351.054871,177.901642 353.190460,179.999359 358.119141,179.988602 
	C367.079865,179.969040 376.040466,179.888062 385.758514,179.994171 
	C386.195099,180.740891 386.783661,181.438309 387.044495,182.242065 
	C389.365540,189.394653 395.250092,192.642349 401.065643,192.051926 
	C404.032928,191.750717 407.172791,192.512177 410.022766,191.863007 
	C413.179016,191.144058 416.093292,189.362717 419.790100,187.714478 
	C423.873718,179.593582 422.145538,171.197174 420.892059,162.844650 
	C420.786804,162.143463 419.970428,161.521790 419.423462,160.918472 
	C415.679291,156.788727 399.361511,155.079422 393.308899,158.283752 
	C392.117981,158.914200 391.216278,160.091019 389.830383,161.675964 
	C388.619720,164.023727 387.409088,166.371490 385.967560,169.167023 
	C383.561340,169.167023 380.781067,169.167023 377.075989,169.023727 
	C372.479034,169.023727 367.882111,169.023727 362.833405,169.023727 
	C362.833405,162.593735 362.833405,156.798218 362.975281,150.074280 
	C362.928406,142.049667 362.881531,134.025055 362.975555,125.072510 
	C362.928162,118.380768 362.880798,111.689026 362.975006,104.071091 
	C362.982086,99.082626 363.309601,94.062889 362.827515,89.122147 
	C362.651917,87.322662 360.871490,84.799438 359.249512,84.224213 
	C356.708344,83.323006 353.252472,83.415352 352.151184,86.829468 
	C351.324890,89.390984 351.461365,92.263054 351.024109,95.924538 
M427.086792,200.023972 
	C424.934662,200.016022 422.767395,200.170441 420.633057,199.971497 
	C412.177887,199.183441 409.948578,202.716751 411.023804,210.922913 
	C411.071533,217.281464 411.119232,223.640015 411.024506,230.844437 
	C411.024506,232.449432 411.024506,234.054428 411.024506,234.254318 
	C407.359344,236.942612 404.622650,238.949905 401.207916,241.287125 
	C400.472473,242.863708 399.193329,244.409805 399.102905,246.022552 
	C398.825378,250.973480 398.826935,255.958130 399.057190,260.914001 
	C399.260590,265.291687 403.390808,270.481506 407.837738,270.727173 
	C414.334167,271.086060 420.898285,270.373627 427.420807,269.930542 
	C428.333252,269.868561 429.173401,268.743042 430.708160,267.795349 
	C435.664551,262.180634 433.722473,255.419113 433.974213,248.191528 
	C434.111694,240.169876 428.606110,237.295990 421.831818,235.441681 
	C421.831818,229.174500 421.831818,223.084915 421.974030,216.117203 
	C421.974030,214.869003 421.974030,213.620789 421.974030,211.831940 
	C426.955109,211.831940 431.481201,211.831940 436.930939,211.973694 
	C441.070770,211.981171 445.210724,212.013092 449.350372,211.989243 
	C453.495453,211.965347 455.088837,209.648392 455.017853,205.721146 
	C454.949585,201.943680 453.143921,199.993393 449.357513,200.009048 
	C442.240417,200.038467 435.123535,200.112488 427.086792,200.023972 
M319.975616,223.081650 
	C319.983093,215.750046 320.057800,208.417679 319.973877,201.087112 
	C319.919952,196.377731 317.597809,193.820435 313.719757,194.018936 
	C309.297546,194.245255 307.863098,196.952347 307.979797,201.026428 
	C308.122833,206.019012 308.112396,211.016022 308.026550,216.937500 
	C308.073242,225.959930 308.119934,234.982361 308.025055,244.931992 
	C308.016785,253.382706 307.994781,261.833435 308.006500,270.284119 
	C308.011780,274.097778 309.970490,276.879425 313.698608,276.807922 
	C317.241364,276.739990 320.124084,274.797485 320.021332,270.386566 
	C319.878632,264.261322 319.887939,258.132507 319.976532,251.076736 
	C319.928192,242.054977 319.879822,233.033218 319.975616,223.081650 
M298.022614,84.935081 
	C298.070923,93.957893 298.119263,102.980713 298.024567,112.930588 
	C298.024567,119.902039 298.024567,126.873489 298.024567,133.800720 
	C296.274719,133.960068 295.137421,134.063629 293.100708,134.025330 
	C290.287384,134.025330 287.474060,134.025330 284.660736,134.025330 
	C284.921478,133.700439 285.182220,133.375534 285.442963,133.050644 
	C282.696716,129.926865 280.529114,125.649040 277.082977,123.921135 
	C270.051056,120.395294 262.350433,120.958580 254.335251,124.160736 
	C252.557404,126.961975 249.822342,129.575562 249.227722,132.608749 
	C248.351959,137.075928 248.839172,141.849380 249.041946,146.479385 
	C249.318954,152.804932 253.816055,156.958679 260.109894,156.995392 
	C264.251617,157.019562 268.403076,156.825241 272.532715,157.049911 
	C276.340027,157.257034 279.236542,155.988495 281.917542,152.299118 
	C282.815155,150.262146 283.712769,148.225174 284.767151,145.832474 
	C290.430511,145.832474 296.214935,145.832474 302.752319,145.973160 
	C307.739624,145.245605 310.101837,142.354965 310.011414,137.325073 
	C309.907623,131.552979 309.890503,125.779343 309.977570,119.077179 
	C309.929810,110.054169 309.882080,101.031166 309.975983,91.078606 
	C309.984558,84.612938 310.087097,78.145538 309.967896,71.682228 
	C309.891327,67.532608 306.315826,63.466572 303.184235,64.116043 
	C299.355927,64.910004 297.498169,67.336174 297.923004,71.593010 
	C298.332733,75.698677 298.110229,79.867462 298.022614,84.935081 
M113.103287,143.025955 
	C110.877449,143.025955 108.651604,143.025955 105.830803,143.025955 
	C105.830803,139.062500 105.830803,135.533997 105.978500,131.077545 
	C105.984276,123.469643 106.109207,115.859169 105.945328,108.254929 
	C105.863922,104.477448 104.916046,100.988632 99.981255,101.006096 
	C96.000641,101.020180 93.999519,103.366936 94.011444,108.139442 
	C94.024651,113.428101 94.112587,118.716568 94.026291,124.932274 
	C94.016815,132.913071 93.988060,140.893921 94.005989,148.874649 
	C94.014938,152.859207 96.090378,154.970779 100.056801,154.982162 
	C106.371124,155.000290 112.685814,154.889938 119.926407,154.980804 
	C125.951271,154.932129 131.976135,154.883469 138.751404,154.995941 
	C141.570236,159.712738 143.394699,165.894760 149.700333,166.686935 
	C155.137070,167.369965 160.807312,166.672577 166.315460,166.057999 
	C168.332047,165.833008 170.179428,164.091522 172.760193,162.675079 
	C173.506821,159.767487 174.603851,156.896301 174.910522,153.943024 
	C175.285782,150.329132 175.021408,146.646301 174.993210,142.993576 
	C174.942139,136.378799 170.539032,132.046844 163.828430,132.006195 
	C159.843567,131.982040 155.771774,131.494843 151.900650,132.158447 
	C148.762238,132.696442 145.864853,134.640396 142.211487,136.312851 
	C141.466049,142.193756 137.957275,143.991531 132.455200,143.035416 
	C131.350113,142.843369 130.164581,143.114227 128.091019,143.030716 
	C123.393814,143.076248 118.696609,143.121780 113.103287,143.025955 
M283.025055,255.927628 
	C283.016205,260.915314 283.121216,265.906586 282.963104,270.889526 
	C282.832794,274.994781 285.554779,276.842743 288.703125,276.758453 
	C291.549866,276.682220 294.304199,274.880798 294.029480,270.965424 
	C293.820496,267.987274 293.888611,264.989716 293.978210,261.073303 
	C293.929871,253.382523 293.881531,245.691742 293.977722,237.073517 
	C293.985138,231.590256 293.993958,226.106979 293.999725,220.623718 
	C294.019684,201.694809 272.014709,188.075195 254.275360,196.046249 
	C247.807587,198.954483 242.734192,203.304947 239.224579,210.346466 
	C235.628281,219.348297 237.249008,228.738174 237.027313,238.929489 
	C237.017212,249.410965 237.152054,259.895538 236.926819,270.372406 
	C236.834610,274.662994 239.266266,276.821136 242.685226,276.762207 
	C245.828293,276.707977 248.177048,274.551544 248.076263,270.489594 
	C247.865906,262.012573 248.075607,253.525162 249.035309,245.008347 
	C256.689850,244.950439 264.344360,244.892517 272.913513,244.979141 
	C276.188019,244.979141 279.462524,244.979141 283.166870,244.979141 
	C283.166870,248.728149 283.166870,251.864319 283.025055,255.927628 
M397.706909,311.799622 
	C399.094971,309.335327 400.483002,306.871033 402.194275,303.832886 
	C405.714691,303.832886 409.856964,303.832886 414.926025,303.976074 
	C420.519897,303.976074 426.113770,303.976074 432.167725,303.976074 
	C432.167725,311.076233 432.167725,317.539124 432.025726,324.929474 
	C432.017517,328.075470 432.004028,331.221466 432.002289,334.367462 
	C431.999054,340.162872 431.803009,345.967651 432.075165,351.750275 
	C432.250458,355.474609 433.474213,359.199921 438.198578,358.897583 
	C442.550903,358.619049 444.126373,355.555542 444.024231,351.369385 
	C443.874817,345.248749 443.889008,339.124146 443.976501,332.073456 
	C443.984161,321.260651 443.953339,310.447601 444.018890,299.635162 
	C444.044342,295.440125 442.192902,293.035706 437.929749,293.026276 
	C427.619843,293.003448 417.309662,293.111511 406.162933,293.025940 
	C402.734955,293.374207 400.111298,292.812317 399.697906,288.535675 
	C399.574280,287.256866 398.330841,285.977631 397.368622,284.907013 
	C392.674011,279.683563 377.548096,279.160614 369.299805,284.197632 
	C364.142731,290.087646 364.076996,297.160645 365.628174,304.066376 
	C368.032227,314.769073 370.078674,316.002441 381.129822,316.001038 
	C383.791626,316.000702 386.581696,316.502777 389.080994,315.865173 
	C391.874023,315.152649 394.403229,313.405914 397.706909,311.799622 
z"/>
<path fill="#16C4DF" opacity="1.000000" stroke="none" 
	d="
M415.859924,92.893433 
	C415.668793,92.912376 415.384583,92.724579 415.133484,92.275208 
	C415.411407,92.198105 415.611511,92.422455 415.859924,92.893433 
z"/>
<path fill="#6382EA" opacity="1.000000" stroke="none" 
	d="
M432.167725,324.001984 
	C432.167725,317.539124 432.167725,311.076233 432.167725,303.976074 
	C426.113770,303.976074 420.519897,303.976074 414.395264,303.577271 
	C411.576202,299.841217 409.287903,296.503998 406.999573,293.166779 
	C417.309662,293.111511 427.619843,293.003448 437.929749,293.026276 
	C442.192902,293.035706 444.044342,295.440125 444.018890,299.635162 
	C443.953339,310.447601 443.984161,321.260651 443.578186,332.469757 
	C439.509125,329.911377 435.838440,326.956665 432.167725,324.001984 
z"/>
<path fill="#7A6FED" opacity="1.000000" stroke="none" 
	d="
M254.994156,196.167953 
	C272.014709,188.075195 294.019684,201.694809 293.999725,220.623718 
	C293.993958,226.106979 293.985138,231.590256 293.578308,237.469543 
	C289.841370,235.577271 286.503876,233.288971 283.094360,230.550354 
	C282.440613,225.640747 282.628235,220.899948 281.120514,216.779480 
	C277.753662,207.578171 270.233215,204.847458 260.979065,205.481613 
	C258.973694,202.143097 256.983948,199.155518 254.994156,196.167953 
z"/>
<path fill="#5C88E9" opacity="1.000000" stroke="none" 
	d="
M301.999390,145.832474 
	C296.214935,145.832474 290.430511,145.832474 284.767151,145.832474 
	C283.712769,148.225174 282.815155,150.262146 281.484222,152.228912 
	C278.089294,149.438828 275.127655,146.718933 272.094513,143.545380 
	C272.022980,140.151108 272.022980,137.210495 272.022980,133.832703 
	C268.269287,133.832703 265.133362,133.832703 261.929993,133.505310 
	C259.559753,130.065399 257.256989,126.952881 254.954224,123.840363 
	C262.350433,120.958580 270.051056,120.395294 277.082977,123.921135 
	C280.529114,125.649040 282.696716,129.926865 285.442963,133.050644 
	C285.182220,133.375534 284.921478,133.700439 284.660736,134.025330 
	C287.474060,134.025330 290.287384,134.025330 293.619141,134.425873 
	C296.758209,138.495117 299.378784,142.163788 301.999390,145.832474 
z"/>
<path fill="#AF42F4" opacity="1.000000" stroke="none" 
	d="
M186.115631,235.040588 
	C177.155746,236.396698 179.074554,243.257965 179.005890,249.105591 
	C178.978622,251.428680 178.989578,253.752197 178.581909,256.470886 
	C174.842285,254.245117 171.503891,251.624023 168.165512,249.002930 
	C168.165512,245.218628 168.165512,241.434341 168.165512,237.734100 
	C158.918442,235.760864 155.871338,232.109390 156.053146,222.930389 
	C156.142838,218.402130 156.800995,213.885147 157.891159,209.223450 
	C161.664536,211.056625 164.748688,213.029404 167.903625,215.459656 
	C167.974396,219.246063 167.974396,222.574997 167.974396,226.167023 
	C171.834152,226.167023 174.916245,226.167023 178.066605,226.493561 
	C180.795105,229.560272 183.455368,232.300430 186.115631,235.040588 
z"/>
<path fill="#C232F7" opacity="1.000000" stroke="none" 
	d="
M95.949883,219.886139 
	C97.781410,219.036957 99.612930,218.187775 101.966995,217.096313 
	C101.966995,211.821854 101.966995,205.892471 102.169212,199.749390 
	C104.217033,205.331650 108.322159,208.870071 113.831421,211.005554 
	C113.929298,213.134827 114.027168,215.264099 114.123840,217.367126 
	C122.583145,219.453781 126.829506,223.042770 125.950195,232.618637 
	C125.485733,237.676788 124.533615,242.690155 123.156319,247.721222 
	C119.636810,245.464310 116.762650,243.209930 113.935745,240.497070 
	C113.983009,236.443634 113.983009,232.848648 113.983009,229.126831 
	C109.958710,229.126831 106.498878,229.126831 102.877853,228.826935 
	C100.461060,225.646744 98.205467,222.766434 95.949883,219.886139 
z"/>
<path fill="#6E79EB" opacity="1.000000" stroke="none" 
	d="
M406.581238,293.096375 
	C409.287903,296.503998 411.576202,299.841217 413.931885,303.505676 
	C409.856964,303.832886 405.714691,303.832886 402.194275,303.832886 
	C400.483002,306.871033 399.094971,309.335327 397.212341,311.656006 
	C394.130829,308.970367 391.543823,306.428345 388.974854,303.431549 
	C388.992889,299.734650 388.992889,296.492493 388.992889,293.112396 
	C384.597717,293.112396 380.821045,293.112396 376.881409,292.811951 
	C374.463593,289.637909 372.208710,286.764282 369.953827,283.890686 
	C377.548096,279.160614 392.674011,279.683563 397.368622,284.907013 
	C398.330841,285.977631 399.574280,287.256866 399.697906,288.535675 
	C400.111298,292.812317 402.734955,293.374207 406.581238,293.096375 
z"/>
<path fill="#479AE6" opacity="1.000000" stroke="none" 
	d="
M362.833405,151.002686 
	C362.833405,156.798218 362.833405,162.593735 362.833405,169.023727 
	C367.882111,169.023727 372.479034,169.023727 377.601898,169.431824 
	C380.418915,173.170837 382.709991,176.501770 385.001099,179.832718 
	C376.040466,179.888062 367.079865,179.969040 358.119141,179.988602 
	C353.190460,179.999359 351.054871,177.901642 351.018646,172.814560 
	C350.952484,163.518784 351.019073,154.222076 351.453186,144.479233 
	C353.609009,145.213974 355.313202,146.440460 357.082703,147.564148 
	C358.967438,148.761002 360.913910,149.860626 362.833405,151.002686 
z"/>
<path fill="#A649F3" opacity="1.000000" stroke="none" 
	d="
M256.998596,314.165131 
	C262.204193,314.165131 267.409790,314.165131 272.321259,314.165131 
	C273.074371,311.503998 273.672119,309.391815 274.776062,307.381836 
	C278.132599,309.989349 280.982971,312.494659 283.904114,315.457672 
	C283.974884,319.190308 283.974884,322.465210 283.974884,326.166595 
	C288.058594,326.166595 291.529572,326.166595 295.068481,326.493103 
	C297.791290,329.559235 300.446106,332.298859 303.100922,335.038513 
	C301.190948,335.691742 299.309998,336.779785 297.365143,336.909454 
	C293.066681,337.196136 288.736084,337.002045 284.418579,337.001312 
	C277.007111,337.000061 273.419464,333.761475 272.698975,325.981903 
	C270.460754,325.981903 268.171906,325.981903 265.373718,325.580353 
	C262.242462,321.507568 259.620544,317.836365 256.998596,314.165131 
z"/>
<path fill="#9756F1" opacity="1.000000" stroke="none" 
	d="
M172.103989,163.041824 
	C170.179428,164.091522 168.332047,165.833008 166.315460,166.057999 
	C160.807312,166.672577 155.137070,167.369965 149.700333,166.686935 
	C143.394699,165.894760 141.570236,159.712738 138.308899,154.588257 
	C134.916321,150.510925 131.966232,146.841293 129.016144,143.171661 
	C130.164581,143.114227 131.350113,142.843369 132.455200,143.035416 
	C137.957275,143.991531 141.466049,142.193756 142.883972,136.198090 
	C146.408829,138.403122 149.261200,140.722900 152.063232,143.500885 
	C152.012909,147.549423 152.012909,151.139755 152.012909,154.886368 
	C156.381683,154.886368 160.169434,154.886368 164.119324,155.184158 
	C166.888992,158.001907 169.496490,160.521866 172.103989,163.041824 
z"/>
<path fill="#3EA2E5" opacity="1.000000" stroke="none" 
	d="
M385.379822,179.913452 
	C382.709991,176.501770 380.418915,173.170837 378.064301,169.503464 
	C380.781067,169.167023 383.561340,169.167023 385.967560,169.167023 
	C387.409088,166.371490 388.619720,164.023727 390.331543,161.409546 
	C393.573364,163.789902 396.313995,166.436661 399.031250,169.540649 
	C399.007874,173.245346 399.007874,176.492813 399.007874,179.886444 
	C403.396606,179.886444 407.176697,179.886444 411.119263,180.184067 
	C413.892181,183.002457 416.502563,185.523239 419.112946,188.044006 
	C416.093292,189.362717 413.179016,191.144058 410.022766,191.863007 
	C407.172791,192.512177 404.032928,191.750717 401.065643,192.051926 
	C395.250092,192.642349 389.365540,189.394653 387.044495,182.242065 
	C386.783661,181.438309 386.195099,180.740891 385.379822,179.913452 
z"/>
<path fill="#8D5FEF" opacity="1.000000" stroke="none" 
	d="
M271.998901,244.834595 
	C264.344360,244.892517 256.689850,244.950439 248.227722,244.961853 
	C244.002579,242.610733 240.585022,240.306091 237.167480,238.001450 
	C237.249008,228.738174 235.628281,219.348297 239.901001,210.215271 
	C243.424698,212.402710 246.271957,214.721344 249.067307,217.472809 
	C248.594940,222.840759 248.174484,227.775894 247.715317,233.165375 
	C253.791382,233.165375 258.895477,233.165375 264.016357,233.516998 
	C264.972595,235.362473 265.825134,236.920624 266.871613,238.335327 
	C268.511871,240.552658 270.283142,242.673111 271.998901,244.834595 
z"/>
<path fill="#7077EC" opacity="1.000000" stroke="none" 
	d="
M186.998978,102.166138 
	C189.822769,102.110870 192.681488,101.753059 195.461838,102.074051 
	C199.257553,102.512253 200.958267,100.948105 201.900330,97.218231 
	C205.663284,99.389221 208.748764,101.694962 211.904816,104.454758 
	C211.975403,107.848137 211.975403,110.787460 211.975403,114.166626 
	C216.063110,114.166626 219.531830,114.166626 223.016724,114.517731 
	C225.392838,117.593880 227.752762,120.318932 230.112701,123.043976 
	C222.184875,127.787041 213.921066,126.620140 205.884750,123.787964 
	C203.840149,123.067413 201.843567,120.191833 201.225922,117.924736 
	C200.347717,114.701271 198.903503,113.554314 195.341766,113.578339 
	C193.734116,111.777176 192.524979,110.429726 191.490601,108.959335 
	C189.929367,106.739975 188.490097,104.434830 186.998978,102.166138 
z"/>
<path fill="#9D51F2" opacity="1.000000" stroke="none" 
	d="
M303.422363,334.893555 
	C300.446106,332.298859 297.791290,329.559235 295.438293,326.253204 
	C295.740112,321.830200 295.740112,317.973602 295.740112,313.505920 
	C291.403412,314.050079 287.618378,314.525024 283.833313,314.999969 
	C280.982971,312.494659 278.132599,309.989349 275.118927,307.186218 
	C277.429138,305.556091 279.832001,303.271393 282.390228,303.081665 
	C288.485107,302.629700 294.674622,302.926941 300.777832,303.465820 
	C302.408905,303.609833 304.186127,305.466400 305.347992,306.962524 
	C309.912476,312.840027 308.867889,329.048279 303.422363,334.893555 
z"/>
<path fill="#6581EA" opacity="1.000000" stroke="none" 
	d="
M230.430176,122.902252 
	C227.752762,120.318932 225.392838,117.593880 223.384445,114.275322 
	C223.735992,109.841431 223.735992,106.001045 223.735992,102.000641 
	C220.487900,102.000641 217.691757,101.816154 214.941803,102.092117 
	C213.853073,102.201370 212.867035,103.334030 211.834229,104.000717 
	C208.748764,101.694962 205.663284,99.389221 202.232056,97.020050 
	C203.161911,92.461555 206.759140,91.315269 210.791046,90.645889 
	C217.450912,89.540222 224.269333,88.839973 230.062500,92.798355 
	C232.449432,94.429314 234.143829,98.001930 234.806717,100.990105 
	C235.613190,104.625412 234.770813,108.593239 235.060364,112.385262 
	C235.388718,116.685387 234.130051,120.109344 230.430176,122.902252 
z"/>
<path fill="#A34CF2" opacity="1.000000" stroke="none" 
	d="
M167.832855,215.002167 
	C164.748688,213.029404 161.664536,211.056625 158.233734,209.019989 
	C159.062790,204.063385 163.265411,202.917313 167.177933,202.473969 
	C174.598709,201.633133 182.451370,200.417419 188.271149,206.937836 
	C189.751724,208.596680 190.614182,211.190994 190.883179,213.459518 
	C191.310150,217.060257 190.763367,220.767853 191.060623,224.394836 
	C191.413559,228.701218 190.133011,232.113525 186.434799,234.902100 
	C183.455368,232.300430 180.795105,229.560272 178.429565,226.300919 
	C179.123749,222.472214 179.631104,219.168762 179.817688,215.847290 
	C179.849213,215.285934 178.479965,214.110626 177.790161,214.134903 
	C174.464996,214.252029 171.150894,214.682739 167.832855,215.002167 
z"/>
<path fill="#677FEB" opacity="1.000000" stroke="none" 
	d="
M272.166046,143.999054 
	C275.127655,146.718933 278.089294,149.438828 281.212280,152.519257 
	C279.236542,155.988495 276.340027,157.257034 272.532715,157.049911 
	C268.403076,156.825241 264.251617,157.019562 260.109894,156.995392 
	C253.816055,156.958679 249.318954,152.804932 249.041946,146.479385 
	C248.839172,141.849380 248.351959,137.075928 249.227722,132.608749 
	C249.822342,129.575562 252.557404,126.961975 254.644745,124.000549 
	C257.256989,126.952881 259.559753,130.065399 261.563843,133.748901 
	C261.265167,138.161407 261.265167,142.002914 261.265167,146.000488 
	C263.850403,146.000488 266.010223,146.245697 268.078400,145.916077 
	C269.506531,145.688461 270.807983,144.666199 272.166046,143.999054 
z"/>
<path fill="#CE27F8" opacity="1.000000" stroke="none" 
	d="
M113.888489,240.955536 
	C116.762650,243.209930 119.636810,245.464310 122.808533,247.883072 
	C120.513809,251.620636 116.983383,253.251068 112.609200,252.987900 
	C107.901176,252.704651 103.138771,252.688507 98.508965,251.909088 
	C93.152420,251.007294 91.451363,246.647446 91.059944,241.886826 
	C90.749252,238.108002 91.244751,234.263062 90.936913,230.483780 
	C90.585129,226.165100 92.000198,222.831863 95.628975,220.034760 
	C98.205467,222.766434 100.461060,225.646744 102.688454,229.198059 
	C102.383400,233.485840 102.106552,237.102600 101.811623,240.955536 
	C106.372177,240.955536 110.130333,240.955536 113.888489,240.955536 
z"/>
<path fill="#7870ED" opacity="1.000000" stroke="none" 
	d="
M369.626831,284.044159 
	C372.208710,286.764282 374.463593,289.637909 376.861847,293.263489 
	C377.005768,296.643127 376.823517,299.289856 377.095062,301.889191 
	C377.206543,302.956238 378.306366,304.793488 378.939941,304.786407 
	C382.281830,304.749084 385.618408,304.235016 388.956818,303.886322 
	C391.543823,306.428345 394.130829,308.970367 396.882538,311.810822 
	C394.403229,313.405914 391.874023,315.152649 389.080994,315.865173 
	C386.581696,316.502777 383.791626,316.000702 381.129822,316.001038 
	C370.078674,316.002441 368.032227,314.769073 365.628174,304.066376 
	C364.076996,297.160645 364.142731,290.087646 369.626831,284.044159 
z"/>
<path fill="#598BE8" opacity="1.000000" stroke="none" 
	d="
M430.047028,268.109833 
	C429.173401,268.743042 428.333252,269.868561 427.420807,269.930542 
	C420.898285,270.373627 414.334167,271.086060 407.837738,270.727173 
	C403.390808,270.481506 399.260590,265.291687 399.057190,260.914001 
	C398.826935,255.958130 398.825378,250.973480 399.102905,246.022552 
	C399.193329,244.409805 400.472473,242.863708 401.892365,241.185425 
	C405.422455,243.403778 408.268066,245.723831 411.065491,248.502136 
	C411.017242,252.539520 411.017242,256.118683 411.017242,259.955597 
	C415.008423,259.955597 418.447510,259.955597 422.184204,260.118195 
	C425.003571,262.890472 427.525299,265.500153 430.047028,268.109833 
z"/>
<path fill="#34AAE3" opacity="1.000000" stroke="none" 
	d="
M419.451538,187.879242 
	C416.502563,185.523239 413.892181,183.002457 411.138428,179.732635 
	C410.994751,176.359116 411.229950,173.703094 410.884338,171.124924 
	C410.735107,170.011780 409.392029,168.193665 408.579498,168.187256 
	C405.407104,168.162201 402.229980,168.733704 399.054626,169.083420 
	C396.313995,166.436661 393.573364,163.789902 390.506958,161.079498 
	C391.216278,160.091019 392.117981,158.914200 393.308899,158.283752 
	C399.361511,155.079422 415.679291,156.788727 419.423462,160.918472 
	C419.970428,161.521790 420.786804,162.143463 420.892059,162.844650 
	C422.145538,171.197174 423.873718,179.593582 419.451538,187.879242 
z"/>
<path fill="#8D5FEF" opacity="1.000000" stroke="none" 
	d="
M172.432098,162.858459 
	C169.496490,160.521866 166.888992,158.001907 164.136780,154.732635 
	C164.012451,142.931534 164.012451,142.931259 153.102386,143.008453 
	C152.772705,143.010788 152.443176,143.030884 152.113571,143.042679 
	C149.261200,140.722900 146.408829,138.403122 143.208496,136.022049 
	C145.864853,134.640396 148.762238,132.696442 151.900650,132.158447 
	C155.771774,131.494843 159.843567,131.982040 163.828430,132.006195 
	C170.539032,132.046844 174.942139,136.378799 174.993210,142.993576 
	C175.021408,146.646301 175.285782,150.329132 174.910522,153.943024 
	C174.603851,156.896301 173.506821,159.767487 172.432098,162.858459 
z"/>
<path fill="#8565EE" opacity="1.000000" stroke="none" 
	d="
M272.456207,244.906860 
	C270.283142,242.673111 268.511871,240.552658 266.871613,238.335327 
	C265.825134,236.920624 264.972595,235.362473 264.479797,233.444794 
	C269.818970,233.014511 274.717529,233.137390 279.599792,232.910431 
	C280.815643,232.853912 281.978943,231.667648 283.166412,231.000671 
	C286.503876,233.288971 289.841370,235.577271 293.506042,237.933258 
	C293.881531,245.691742 293.929871,253.382523 293.578552,261.469421 
	C289.841583,259.577148 286.504211,257.288818 283.166870,255.000488 
	C283.166870,251.864319 283.166870,248.728149 283.166870,244.979141 
	C279.462524,244.979141 276.188019,244.979141 272.456207,244.906860 
z"/>
<path fill="#A649F3" opacity="1.000000" stroke="none" 
	d="
M119.000343,154.833923 
	C112.685814,154.889938 106.371124,155.000290 100.056801,154.982162 
	C96.090378,154.970779 94.014938,152.859207 94.005989,148.874649 
	C93.988060,140.893921 94.016815,132.913071 94.448334,124.484291 
	C96.363716,124.975357 97.921906,125.826836 99.335464,126.873627 
	C101.551888,128.514938 103.670670,130.288132 105.830803,132.005478 
	C105.830803,135.533997 105.830803,139.062500 105.830803,143.025955 
	C108.651604,143.025955 110.877449,143.025955 113.494034,143.422272 
	C114.494072,145.615662 114.949768,147.485077 115.753082,149.190781 
	C116.674667,151.147568 117.904442,152.959229 119.000343,154.833923 
z"/>
<path fill="#5093E7" opacity="1.000000" stroke="none" 
	d="
M430.377594,267.952576 
	C427.525299,265.500153 425.003571,262.890472 422.374634,259.745667 
	C424.801849,249.248047 423.876556,247.980469 414.077026,248.001740 
	C413.089233,248.003891 412.101471,248.029282 411.113708,248.043884 
	C408.268066,245.723831 405.422455,243.403778 402.231384,241.020447 
	C404.622650,238.949905 407.359344,236.942612 411.024506,234.254318 
	C411.024506,234.054428 411.024506,232.449432 411.422607,230.489014 
	C417.350800,235.392181 422.811951,240.726608 428.457153,245.858612 
	C429.959259,247.224167 432.025665,247.968979 433.832977,248.998810 
	C433.722473,255.419113 435.664551,262.180634 430.377594,267.952576 
z"/>
<path fill="#9D51F2" opacity="1.000000" stroke="none" 
	d="
M237.097397,238.465469 
	C240.585022,240.306091 244.002579,242.610733 247.766418,244.978699 
	C248.075607,253.525162 247.865906,262.012573 248.076263,270.489594 
	C248.177048,274.551544 245.828293,276.707977 242.685226,276.762207 
	C239.266266,276.821136 236.834610,274.662994 236.926819,270.372406 
	C237.152054,259.895538 237.017212,249.410965 237.097397,238.465469 
z"/>
<path fill="#7077EC" opacity="1.000000" stroke="none" 
	d="
M432.096741,324.465729 
	C435.838440,326.956665 439.509125,329.911377 443.506653,332.933655 
	C443.889008,339.124146 443.874817,345.248749 444.024231,351.369385 
	C444.126373,355.555542 442.550903,358.619049 438.198578,358.897583 
	C433.474213,359.199921 432.250458,355.474609 432.075165,351.750275 
	C431.803009,345.967651 431.999054,340.162872 432.002289,334.367462 
	C432.004028,331.221466 432.017517,328.075470 432.096741,324.465729 
z"/>
<path fill="#5093E7" opacity="1.000000" stroke="none" 
	d="
M302.375854,145.902817 
	C299.378784,142.163788 296.758209,138.495117 294.068848,134.496826 
	C295.137421,134.063629 296.274719,133.960068 298.024567,133.800720 
	C298.024567,126.873489 298.024567,119.902039 298.422943,112.533936 
	C300.223785,113.268478 301.571167,114.477890 303.041565,115.512566 
	C305.261261,117.074509 307.566711,118.514542 309.835754,120.006378 
	C309.890503,125.779343 309.907623,131.552979 310.011414,137.325073 
	C310.101837,142.354965 307.739624,145.245605 302.375854,145.902817 
z"/>
<path fill="#479AE6" opacity="1.000000" stroke="none" 
	d="
M309.906647,119.541779 
	C307.566711,118.514542 305.261261,117.074509 303.041565,115.512566 
	C301.571167,114.477890 300.223785,113.268478 298.494446,112.070404 
	C298.119263,102.980713 298.070923,93.957893 298.420959,84.537827 
	C300.221863,85.271500 301.569427,86.480614 303.039825,87.515083 
	C305.259644,89.076752 307.565216,90.516556 309.834351,92.008148 
	C309.882080,101.031166 309.929810,110.054169 309.906647,119.541779 
z"/>
<path fill="#8169EE" opacity="1.000000" stroke="none" 
	d="
M319.832184,252.005203 
	C319.887939,258.132507 319.878632,264.261322 320.021332,270.386566 
	C320.124084,274.797485 317.241364,276.739990 313.698608,276.807922 
	C309.970490,276.879425 308.011780,274.097778 308.006500,270.284119 
	C307.994781,261.833435 308.016785,253.382706 308.447083,244.484070 
	C310.362762,244.975281 311.921234,245.826920 313.335205,246.873718 
	C315.552124,248.514969 317.671509,250.287994 319.832184,252.005203 
z"/>
<path fill="#7870ED" opacity="1.000000" stroke="none" 
	d="
M319.904358,251.540970 
	C317.671509,250.287994 315.552124,248.514969 313.335205,246.873718 
	C311.921234,245.826920 310.362762,244.975281 308.517853,244.020477 
	C308.119934,234.982361 308.073242,225.959930 308.424133,216.539948 
	C310.223602,217.273102 311.570648,218.481735 313.040192,219.516327 
	C315.259094,221.078445 317.563446,222.519150 319.831482,224.011459 
	C319.879822,233.033218 319.928192,242.054977 319.904358,251.540970 
z"/>
<path fill="#3EA2E5" opacity="1.000000" stroke="none" 
	d="
M362.904358,150.538483 
	C360.913910,149.860626 358.967438,148.761002 357.082703,147.564148 
	C355.313202,146.440460 353.609009,145.213974 351.524963,144.015320 
	C351.124725,135.641663 351.075623,127.285378 351.450623,118.481773 
	C353.367401,118.974586 354.924103,119.828285 356.338104,120.874763 
	C358.554260,122.514908 360.674042,124.285255 362.834656,126.000458 
	C362.881531,134.025055 362.928406,142.049667 362.904358,150.538483 
z"/>
<path fill="#BA38F6" opacity="1.000000" stroke="none" 
	d="
M113.905960,210.541794 
	C108.322159,208.870071 104.217033,205.331650 102.117897,199.285721 
	C101.444847,199.017395 101.025337,198.999008 100.233368,198.578888 
	C96.909546,194.510452 93.958191,190.843765 91.006828,187.177094 
	C97.369400,187.440399 103.738197,187.605865 110.091858,188.009384 
	C113.147270,188.203445 114.081238,190.302368 114.025925,193.187332 
	C113.918015,198.815796 113.985580,204.447601 113.905960,210.541794 
z"/>
<path fill="#9D51F2" opacity="1.000000" stroke="none" 
	d="
M105.904648,131.541504 
	C103.670670,130.288132 101.551888,128.514938 99.335464,126.873627 
	C97.921906,125.826836 96.363716,124.975357 94.519173,124.020714 
	C94.112587,118.716568 94.024651,113.428101 94.011444,108.139442 
	C93.999519,103.366936 96.000641,101.020180 99.981255,101.006096 
	C104.916046,100.988632 105.863922,104.477448 105.945328,108.254929 
	C106.109207,115.859169 105.984276,123.469643 105.904648,131.541504 
z"/>
<path fill="#BA38F6" opacity="1.000000" stroke="none" 
	d="
M168.094971,249.466736 
	C171.503891,251.624023 174.842285,254.245117 178.507477,256.934082 
	C178.883713,265.694763 178.933136,274.387604 178.555847,283.526184 
	C174.808777,281.650238 171.488434,279.328522 168.168091,277.006805 
	C168.120209,267.981384 168.072327,258.955963 168.094971,249.466736 
z"/>
<path fill="#479AE6" opacity="1.000000" stroke="none" 
	d="
M433.903595,248.595169 
	C432.025665,247.968979 429.959259,247.224167 428.457153,245.858612 
	C422.811951,240.726608 417.350800,235.392181 411.493805,230.066086 
	C411.119232,223.640015 411.071533,217.281464 411.423218,210.527435 
	C415.158997,212.419739 418.495422,214.707535 421.831818,216.995316 
	C421.831818,223.084915 421.831818,229.174500 421.831818,235.441681 
	C428.606110,237.295990 434.111694,240.169876 433.903595,248.595169 
z"/>
<path fill="#6E79EB" opacity="1.000000" stroke="none" 
	d="
M319.903564,223.546555 
	C317.563446,222.519150 315.259094,221.078445 313.040192,219.516327 
	C311.570648,218.481735 310.223602,217.273102 308.494995,216.076752 
	C308.112396,211.016022 308.122833,206.019012 307.979797,201.026428 
	C307.863098,196.952347 309.297546,194.245255 313.719757,194.018936 
	C317.597809,193.820435 319.919952,196.377731 319.973877,201.087112 
	C320.057800,208.417679 319.983093,215.750046 319.903564,223.546555 
z"/>
<path fill="#7870ED" opacity="1.000000" stroke="none" 
	d="
M154.166962,93.001671 
	C154.112640,86.864868 154.062881,80.728020 154.002365,74.591278 
	C153.964783,70.780777 156.268280,69.955048 159.538162,69.962700 
	C162.839600,69.970436 165.026337,70.899193 165.007019,74.678276 
	C164.965454,82.810173 164.983459,90.942360 164.553711,99.521370 
	C160.809204,97.646095 157.488083,95.323883 154.166962,93.001671 
z"/>
<path fill="#D223F9" opacity="1.000000" stroke="none" 
	d="
M59.992744,198.832153 
	C52.357765,198.888840 44.718182,198.806732 37.089718,199.059830 
	C33.181133,199.189499 31.669882,196.626755 31.173712,193.780746 
	C30.691029,191.012100 31.590263,188.124420 35.377537,187.911743 
	C41.103889,187.590195 46.832542,187.309570 52.903484,187.492493 
	C54.139549,189.791107 54.892597,191.696396 55.962395,193.403107 
	C57.155716,195.306900 58.636871,197.030258 59.992744,198.832153 
z"/>
<path fill="#B23FF4" opacity="1.000000" stroke="none" 
	d="
M256.534698,314.094543 
	C259.620544,317.836365 262.242462,321.507568 264.931213,325.506653 
	C257.640381,325.883423 250.282715,325.932373 242.394638,325.580353 
	C238.908768,321.508453 235.953323,317.837555 232.997864,314.166626 
	C240.688843,314.119080 248.379822,314.071533 256.534698,314.094543 
z"/>
<path fill="#3EA2E5" opacity="1.000000" stroke="none" 
	d="
M309.905151,91.543381 
	C307.565216,90.516556 305.259644,89.076752 303.039825,87.515083 
	C301.569427,86.480614 300.221863,85.271500 298.492371,84.074539 
	C298.110229,79.867462 298.332733,75.698677 297.923004,71.593010 
	C297.498169,67.336174 299.355927,64.910004 303.184235,64.116043 
	C306.315826,63.466572 309.891327,67.532608 309.967896,71.682228 
	C310.087097,78.145538 309.984558,84.612938 309.905151,91.543381 
z"/>
<path fill="#34AAE3" opacity="1.000000" stroke="none" 
	d="
M428.006561,200.167969 
	C435.123535,200.112488 442.240417,200.038467 449.357513,200.009048 
	C453.143921,199.993393 454.949585,201.943680 455.017853,205.721146 
	C455.088837,209.648392 453.495453,211.965347 449.350372,211.989243 
	C445.210724,212.013092 441.070770,211.981171 436.400360,211.575836 
	C434.738678,209.775940 433.529022,208.429123 432.494904,206.958893 
	C430.934509,204.740479 429.496552,202.435913 428.006561,200.167969 
z"/>
<path fill="#3EA2E5" opacity="1.000000" stroke="none" 
	d="
M427.546692,200.095978 
	C429.496552,202.435913 430.934509,204.740479 432.494904,206.958893 
	C433.529022,208.429123 434.738678,209.775940 435.938538,211.504974 
	C431.481201,211.831940 426.955109,211.831940 421.974030,211.831940 
	C421.974030,213.620789 421.974030,214.869003 421.902924,216.556259 
	C418.495422,214.707535 415.158997,212.419739 411.495087,210.063614 
	C409.948578,202.716751 412.177887,199.183441 420.633057,199.971497 
	C422.767395,200.170441 424.934662,200.016022 427.546692,200.095978 
z"/>
<path fill="#32ACE3" opacity="1.000000" stroke="none" 
	d="
M362.905090,125.536484 
	C360.674042,124.285255 358.554260,122.514908 356.338104,120.874763 
	C354.924103,119.828285 353.367401,118.974586 351.523804,118.018341 
	C351.123322,110.642990 351.073700,103.283768 351.421631,95.532364 
	C355.490570,98.425896 359.161987,101.711586 362.833435,104.997284 
	C362.880798,111.689026 362.928162,118.380768 362.905090,125.536484 
z"/>
<path fill="#8169EE" opacity="1.000000" stroke="none" 
	d="
M154.096161,93.464775 
	C157.488083,95.323883 160.809204,97.646095 164.481491,99.985229 
	C165.321396,100.672455 165.810135,101.342773 166.665054,102.441444 
	C167.970993,104.363319 168.823868,105.921135 169.870514,107.335564 
	C171.510834,109.552284 173.282028,111.672150 174.997803,113.833038 
	C170.018478,113.888535 165.038925,114.000259 160.059875,113.981728 
	C156.083710,113.966934 154.036713,111.848145 154.009476,107.879982 
	C153.977570,103.229538 154.016907,98.578598 154.096161,93.464775 
z"/>
<path fill="#C72CF7" opacity="1.000000" stroke="none" 
	d="
M60.456451,198.907745 
	C58.636871,197.030258 57.155716,195.306900 55.962395,193.403107 
	C54.892597,191.696396 54.139549,189.791107 53.330399,187.562271 
	C59.966728,187.110489 66.519417,187.069855 73.538612,187.470810 
	C74.966843,189.738602 75.808632,191.642120 76.922485,193.370300 
	C78.150078,195.274933 79.627525,197.018524 80.996140,198.832275 
	C74.304146,198.882629 67.612152,198.932983 60.456451,198.907745 
z"/>
<path fill="#C72CF7" opacity="1.000000" stroke="none" 
	d="
M168.097397,277.459167 
	C171.488434,279.328522 174.808777,281.650238 178.480347,283.989929 
	C179.383774,298.762299 179.746338,297.009033 165.384018,296.579407 
	C162.573410,292.841370 160.284500,289.504944 157.995590,286.168518 
	C161.196259,286.168518 164.396927,286.168518 168.026718,286.168518 
	C168.026718,283.020447 168.026718,280.466003 168.097397,277.459167 
z"/>
<path fill="#7870ED" opacity="1.000000" stroke="none" 
	d="
M175.461456,113.905136 
	C173.282028,111.672150 171.510834,109.552284 169.870514,107.335564 
	C168.823868,105.921135 167.970993,104.363319 167.014099,102.518478 
	C173.355209,102.119591 179.713501,102.072021 186.535370,102.095291 
	C188.490097,104.434830 189.929367,106.739975 191.490601,108.959335 
	C192.524979,110.429726 193.734116,111.777176 194.932343,113.506706 
	C188.641464,113.881584 182.283295,113.929413 175.461456,113.905136 
z"/>
<path fill="#BA38F6" opacity="1.000000" stroke="none" 
	d="
M232.534927,314.095276 
	C235.953323,317.837555 238.908768,321.508453 241.931076,325.506287 
	C235.990753,325.894165 229.983582,325.955139 223.348434,325.764282 
	C219.812988,322.064087 216.905533,318.615631 213.998062,315.167236 
	C220.022705,314.786133 226.047348,314.405029 232.534927,314.095276 
z"/>
<path fill="#CE27F8" opacity="1.000000" stroke="none" 
	d="
M157.532379,286.096069 
	C160.284500,289.504944 162.573410,292.841370 164.929108,296.505005 
	C158.304794,296.882660 151.613708,296.933136 144.392624,296.580994 
	C141.573654,292.841339 139.284683,289.504272 136.995697,286.167236 
	C143.686844,286.119354 150.378006,286.071503 157.532379,286.096069 
z"/>
<path fill="#8565EE" opacity="1.000000" stroke="none" 
	d="
M249.119217,217.039978 
	C246.271957,214.721344 243.424698,212.402710 240.232010,210.020828 
	C242.734192,203.304947 247.807587,198.954483 254.634766,196.107101 
	C256.983948,199.155518 258.973694,202.143097 260.657104,205.635605 
	C256.606873,209.773682 252.863052,213.406830 249.119217,217.039978 
z"/>
<path fill="#C232F7" opacity="1.000000" stroke="none" 
	d="
M81.459549,198.906326 
	C79.627525,197.018524 78.150078,195.274933 76.922485,193.370300 
	C75.808632,191.642120 74.966843,189.738602 74.001801,187.544067 
	C79.359673,187.125885 84.720871,187.076035 90.544449,187.101639 
	C93.958191,190.843765 96.909546,194.510452 99.927422,198.504120 
	C93.970276,198.880859 87.946625,198.930618 81.459549,198.906326 
z"/>
<path fill="#C232F7" opacity="1.000000" stroke="none" 
	d="
M213.623642,315.222229 
	C216.905533,318.615631 219.812988,322.064087 222.885239,325.809509 
	C223.031845,328.767273 223.086868,331.431030 222.976791,334.087982 
	C222.842041,337.340424 220.805862,339.454498 217.835526,339.424957 
	C215.848831,339.405212 212.418320,337.975769 212.145325,336.657135 
	C210.670029,329.531403 209.195038,322.194000 213.623642,315.222229 
z"/>
<path fill="#9D51F2" opacity="1.000000" stroke="none" 
	d="
M119.463379,154.907364 
	C117.904442,152.959229 116.674667,151.147568 115.753082,149.190781 
	C114.949768,147.485077 114.494072,145.615662 113.942093,143.492950 
	C118.696609,143.121780 123.393814,143.076248 128.553589,143.101196 
	C131.966232,146.841293 134.916321,150.510925 137.933701,154.507675 
	C131.976135,154.883469 125.951271,154.932129 119.463379,154.907364 
z"/>
<path fill="#D620F9" opacity="1.000000" stroke="none" 
	d="
M136.536591,286.095459 
	C139.284683,289.504272 141.573654,292.841339 143.929169,296.505737 
	C138.002502,296.889618 132.004150,296.814850 126.017929,297.049377 
	C122.110512,297.202423 120.298592,294.551392 120.224800,291.723053 
	C120.143265,288.597839 121.971214,285.791290 126.083992,285.972931 
	C129.409409,286.119781 132.745895,286.016174 136.536591,286.095459 
z"/>
<path fill="#8D5FEF" opacity="1.000000" stroke="none" 
	d="
M283.095947,255.464050 
	C286.504211,257.288818 289.841583,259.577148 293.506165,261.933167 
	C293.888611,264.989716 293.820496,267.987274 294.029480,270.965424 
	C294.304199,274.880798 291.549866,276.682220 288.703125,276.758453 
	C285.554779,276.842743 282.832794,274.994781 282.963104,270.889526 
	C283.121216,265.906586 283.016205,260.915314 283.095947,255.464050 
z"/>
<path fill="#2AB3E2" opacity="1.000000" stroke="none" 
	d="
M362.904205,104.534187 
	C359.161987,101.711586 355.490570,98.425896 351.494171,95.068527 
	C351.461365,92.263054 351.324890,89.390984 352.151184,86.829468 
	C353.252472,83.415352 356.708344,83.323006 359.249512,84.224213 
	C360.871490,84.799438 362.651917,87.322662 362.827515,89.122147 
	C363.309601,94.062889 362.982086,99.082626 362.904205,104.534187 
z"/>
<path fill="#000000" opacity="1.000000" stroke="none" 
	d="
M249.067307,217.472809 
	C252.863052,213.406830 256.606873,209.773682 260.672668,205.986542 
	C270.233215,204.847458 277.753662,207.578171 281.120514,216.779480 
	C282.628235,220.899948 282.440613,225.640747 283.094360,230.550354 
	C281.978943,231.667648 280.815643,232.853912 279.599792,232.910431 
	C274.717529,233.137390 269.818970,233.014511 264.463013,233.093170 
	C258.895477,233.165375 253.791382,233.165375 247.715317,233.165375 
	C248.174484,227.775894 248.594940,222.840759 249.067307,217.472809 
z"/>
<path fill="#000000" opacity="1.000000" stroke="none" 
	d="
M272.094513,143.545380 
	C270.807983,144.666199 269.506531,145.688461 268.078400,145.916077 
	C266.010223,146.245697 263.850403,146.000488 261.265167,146.000488 
	C261.265167,142.002914 261.265167,138.161407 261.631287,134.076294 
	C265.133362,133.832703 268.269287,133.832703 272.022980,133.832703 
	C272.022980,137.210495 272.022980,140.151108 272.094513,143.545380 
z"/>
<path fill="#000000" opacity="1.000000" stroke="none" 
	d="
M167.903625,215.459656 
	C171.150894,214.682739 174.464996,214.252029 177.790161,214.134903 
	C178.479965,214.110626 179.849213,215.285934 179.817688,215.847290 
	C179.631104,219.168762 179.123749,222.472214 178.361328,225.974380 
	C174.916245,226.167023 171.834152,226.167023 167.974396,226.167023 
	C167.974396,222.574997 167.974396,219.246063 167.903625,215.459656 
z"/>
<path fill="#000000" opacity="1.000000" stroke="none" 
	d="
M113.935745,240.497070 
	C110.130333,240.955536 106.372177,240.955536 101.811623,240.955536 
	C102.106552,237.102600 102.383400,233.485840 102.849655,229.497955 
	C106.498878,229.126831 109.958710,229.126831 113.983009,229.126831 
	C113.983009,232.848648 113.983009,236.443634 113.935745,240.497070 
z"/>
<path fill="#000000" opacity="1.000000" stroke="none" 
	d="
M388.974854,303.431549 
	C385.618408,304.235016 382.281830,304.749084 378.939941,304.786407 
	C378.306366,304.793488 377.206543,302.956238 377.095062,301.889191 
	C376.823517,299.289856 377.005768,296.643127 377.024780,293.563934 
	C380.821045,293.112396 384.597717,293.112396 388.992889,293.112396 
	C388.992889,296.492493 388.992889,299.734650 388.974854,303.431549 
z"/>
<path fill="#000000" opacity="1.000000" stroke="none" 
	d="
M283.904114,315.457672 
	C287.618378,314.525024 291.403412,314.050079 295.740112,313.505920 
	C295.740112,317.973602 295.740112,321.830200 295.370300,325.926697 
	C291.529572,326.166595 288.058594,326.166595 283.974884,326.166595 
	C283.974884,322.465210 283.974884,319.190308 283.904114,315.457672 
z"/>
<path fill="#000000" opacity="1.000000" stroke="none" 
	d="
M152.063232,143.500885 
	C152.443176,143.030884 152.772705,143.010788 153.102386,143.008453 
	C164.012451,142.931259 164.012451,142.931534 163.974640,154.434845 
	C160.169434,154.886368 156.381683,154.886368 152.012909,154.886368 
	C152.012909,151.139755 152.012909,147.549423 152.063232,143.500885 
z"/>
<path fill="#000000" opacity="1.000000" stroke="none" 
	d="
M399.031250,169.540649 
	C402.229980,168.733704 405.407104,168.162201 408.579498,168.187256 
	C409.392029,168.193665 410.735107,170.011780 410.884338,171.124924 
	C411.229950,173.703094 410.994751,176.359116 410.975922,179.435013 
	C407.176697,179.886444 403.396606,179.886444 399.007874,179.886444 
	C399.007874,176.492813 399.007874,173.245346 399.031250,169.540649 
z"/>
<path fill="#000000" opacity="1.000000" stroke="none" 
	d="
M211.904816,104.454765 
	C212.867035,103.334030 213.853073,102.201370 214.941803,102.092117 
	C217.691757,101.816154 220.487900,102.000641 223.735992,102.000641 
	C223.735992,106.001045 223.735992,109.841431 223.368256,113.924225 
	C219.531830,114.166626 216.063110,114.166626 211.975403,114.166626 
	C211.975403,110.787460 211.975403,107.848137 211.904816,104.454765 
z"/>
<path fill="#000000" opacity="1.000000" stroke="none" 
	d="
M411.065491,248.502136 
	C412.101471,248.029282 413.089233,248.003891 414.077026,248.001740 
	C423.876556,247.980469 424.801849,249.248047 422.077026,259.583069 
	C418.447510,259.955597 415.008423,259.955597 411.017242,259.955597 
	C411.017242,256.118683 411.017242,252.539520 411.065491,248.502136 
z"/>
</svg>